<?xml version="1.0" encoding="UTF-8"?>
<svg width="300px" height="100px" viewBox="0 0 300 100" version="1.1" xmlns="http://www.w3.org/2000/svg" xmlns:xlink="http://www.w3.org/1999/xlink">
    <title>01_bumble</title>
    <g id="01_bumble" stroke="none" fill="none" fill-rule="evenodd" stroke-width="1">
        <g id="Bumble" transform="translate(60, 33)" fill="#FFC629">
            <path d="M41.7299834,3.38524818 C41.7299834,2.7948406 42.2100447,2.31818182 42.7985891,2.31818182 L56.0015921,2.31818182 C61.553493,2.31818182 64.9274935,5.0291821 64.9274935,9.58722673 C64.9274935,12.6259436 63.034306,15.0498248 60.0725779,15.708 C63.8968125,16.4473088 65.749283,18.7872939 65.749283,22.6086592 C65.749283,27.8248483 62.0470973,31.0693766 56.123641,31.0693766 L42.7958848,31.0693766 C42.2046219,31.0693766 41.7272727,30.5900434 41.7272727,30.0023614 L41.7272727,3.38524818 L41.7299834,3.38524818 Z M54.480062,13.4492509 C57.113605,13.4492509 58.4697159,12.3821845 58.4697159,10.4105545 C58.4697159,8.43891416 57.113605,7.45309401 54.480062,7.45309401 L48.062981,7.45309401 L48.062981,13.4492509 L54.480062,13.4492509 Z M54.6861982,25.8531875 C57.6886434,25.8531875 59.2942607,24.5397019 59.2942607,21.9912043 C59.2942607,19.4427067 57.6886434,18.0886031 54.6861982,18.0886031 L48.062981,18.0886031 L48.062981,25.8505274 L54.6861982,25.8505274 L54.6861982,25.8531875 Z" id="Shape" fill-rule="nonzero"></path>
            <path d="M67.6365517,23.1015999 L67.6365517,12.0951575 C67.6365517,11.504754 68.1165837,11.0280912 68.7050924,11.0280912 L72.6947462,11.0280912 C73.2860101,11.0280912 73.7633889,11.5074551 73.7633889,12.0951575 L73.7633889,21.0081875 C73.7633889,24.6237003 75.0787828,26.4301267 77.5876236,26.4301267 C80.2211665,26.4301267 81.5772774,24.6237003 81.5772774,21.0081875 L81.5772774,12.0951575 C81.5772774,11.504754 82.0573094,11.0280912 82.6459201,11.0280912 L86.5948569,11.0280912 C87.1861209,11.0280912 87.6634996,11.5074551 87.6634996,12.0951575 L87.6634996,30.0023614 C87.6634996,30.5928058 87.1833656,31.0694789 86.5948569,31.0694789 L82.6459201,31.0694789 C82.0546562,31.0694789 81.5772774,30.5900434 81.5772774,30.0023614 L81.5772774,28.8513478 C80.0557473,30.7823906 77.8343747,31.6435534 75.1602168,31.6435534 C70.4708224,31.6435534 67.6337964,28.399025 67.6337964,23.1015999 L67.6365517,23.1015999 Z" id="Path"></path>
            <path d="M91.1476096,11.025431 L95.1372634,11.025431 C95.7285273,11.025431 96.2059061,11.504795 96.2059061,12.0924974 L96.2059061,13.3653548 C97.7274361,11.3531374 99.7019556,10.4485635 102.457548,10.4485635 C105.213139,10.4485635 107.515844,11.6402156 108.790521,13.8989135 C110.477572,11.5589591 112.861609,10.4485635 115.988756,10.4485635 C120.512731,10.4485635 123.555791,13.6930611 123.555791,18.8686322 L123.555791,29.9997013 C123.555791,30.5901457 123.075759,31.0668188 122.487149,31.0668188 L118.578929,31.0668188 C117.987665,31.0668188 117.510286,30.5873833 117.510286,29.9997013 L117.510286,21.0461454 C117.510286,17.5145287 116.441643,15.6647219 113.889432,15.6647219 C111.337323,15.6647219 109.899779,17.7176186 109.899779,21.0461454 L109.899779,29.9997013 C109.899779,30.5901457 109.419747,31.0668188 108.831238,31.0668188 L104.882199,31.0668188 C104.291037,31.0668188 103.813658,30.5873833 103.813658,29.9997013 L103.813658,21.0461454 C103.813658,17.5145287 102.745016,15.6647219 100.192805,15.6647219 C97.6406957,15.6647219 96.2031508,17.7176186 96.2031508,21.0867634 L96.2031508,29.9997013 C96.2031508,30.5901457 95.7231188,31.0668188 95.1346102,31.0668188 L91.1449563,31.0668188 C90.5536924,31.0668188 90.0763136,30.5873833 90.0763136,29.9997013 L90.0763136,12.0924974 C90.0763136,11.5020939 90.5563456,11.025431 91.1449563,11.025431 L91.1476096,11.025431 Z" id="Path"></path>
            <path d="M131.937371,28.6454954 L131.937371,30.0023614 C131.937371,30.5927035 131.457237,31.0693766 130.868728,31.0693766 L127.001123,31.0693766 C126.409859,31.0693766 125.93248,30.5900434 125.93248,30.0023614 L125.93248,3.38524818 C125.93248,2.7948406 126.412615,2.31818182 127.001123,2.31818182 L130.990777,2.31818182 C131.582041,2.31818182 132.05942,2.79754881 132.05942,3.38524818 L132.05942,13.6957213 C133.458901,11.764699 136.008357,10.4511827 139.010802,10.4511827 C144.687201,10.4511827 148.883399,14.8873529 148.883399,21.0080852 C148.883399,27.1288175 144.687201,31.6462135 138.47648,31.6462135 C135.680171,31.6462135 133.212048,30.4951999 131.937371,28.6481555 L131.937371,28.6454954 Z M142.878407,21.0054251 C142.878407,17.6362803 140.781838,15.5021476 137.367121,15.5021476 C133.952505,15.5021476 131.855937,17.6389404 131.855937,21.0054251 C131.855937,24.3718074 133.952505,26.6332167 137.367121,26.6332167 C140.781838,26.6332167 142.878407,24.4964238 142.878407,21.0054251 Z" id="Shape" fill-rule="nonzero"></path>
            <path d="M151.905029,2.31818182 L155.895091,2.31818182 C156.485947,2.31818182 156.96353,2.79754881 156.96353,3.38524818 L156.96353,29.999599 C156.96353,30.5900434 156.483906,31.0667165 155.895091,31.0667165 L151.905029,31.0667165 C151.314173,31.0667165 150.83659,30.587281 150.83659,29.999599 L150.83659,3.38524818 C150.83659,2.7948406 151.317235,2.31818182 151.905029,2.31818182 Z" id="Path"></path>
            <path d="M158.929987,21.0461454 C158.929987,14.8847951 163.537437,10.4486351 170.076649,10.4486351 C176.615861,10.4486351 180.77124,14.760281 180.77124,21.1273814 C180.77124,21.7178258 180.290596,22.1944989 179.702801,22.1944989 L164.813033,22.1944989 C164.937531,22.974528 165.140606,23.6326009 165.47124,24.1661596 C166.418242,25.850732 168.145908,26.6306589 170.488921,26.6306589 C172.484973,26.6306589 174.140185,25.8614748 175.403535,24.3448993 C175.748456,23.9305344 176.350537,23.8411134 176.800567,24.1336243 L179.181338,25.6718901 C179.67831,25.9915138 179.827299,26.6577716 179.501767,27.1507124 C177.687361,29.8751872 174.109571,31.643758 170.367485,31.643758 C163.581318,31.643758 158.932028,27.5785825 158.932028,21.0461454 L158.929987,21.0461454 Z M174.766758,19.1584831 C174.766758,16.9404542 172.832955,15.2152639 170.117468,15.2152639 C167.856093,15.2152639 166.209044,16.0358087 165.387561,17.801617 C165.181425,18.2133218 165.058968,18.6628822 164.934469,19.1558229 L174.766758,19.1558229 L174.766758,19.1584831 Z" id="Shape" fill-rule="nonzero"></path>
            <g id="icon">
                <path d="M38.2375116,15.7560381 C38.676127,16.5187415 38.676127,17.466638 38.2375116,18.2439619 L29.8331542,32.7572565 C29.7259371,32.9521967 29.5967892,33.125206 29.4457106,33.2762847 C29.284885,33.4289878 29.1110633,33.5589479 28.9242457,33.666165 C28.737428,33.7815046 28.5416756,33.8659786 28.3369885,33.9195872 C28.1225543,33.9731957 27.9089324,34 27.6961227,34 L10.875224,34 C10.6607898,34 10.4471679,33.9731957 10.2343582,33.9195872 C10.029671,33.8659786 9.82904513,33.7815046 9.63248047,33.666165 C9.44566282,33.5589479 9.27671469,33.4289878 9.12563606,33.2762847 C8.97293294,33.125206 8.84378509,32.9521967 8.7381925,32.7572565 L0.333835018,18.2439619 C0.226617932,18.0555197 0.146205117,17.8548938 0.0925965742,17.6420841 C0.0308655247,17.42765 0,17.214028 0,17.0012184 C0,16.7770372 0.0308655247,16.562603 0.0925965742,16.3579159 C0.146205117,16.1451062 0.226617932,15.9444803 0.333835018,15.7560381 L8.7381925,1.23055974 C8.84378509,1.04374209 8.97293294,0.874793951 9.12563606,0.72371533 C9.27671469,0.571012208 9.44566282,0.441864354 9.63248047,0.33627177 C9.82904513,0.219307676 10.029671,0.134021357 10.2343582,0.0804128144 C10.4471679,0.0268042715 10.6607898,0 10.875224,0 L27.6961227,0 C28.5757902,0 29.3774815,0.467856375 29.8331542,1.23055974 L38.2375116,15.7560381 Z M27.761915,19.1382498 C28.9242457,19.1382498 29.8745789,18.1757328 29.8745789,16.9987816 C29.8745789,15.8218304 28.9242457,14.8861177 27.761915,14.8861177 L10.8094317,14.8861177 C10.246542,14.8861177 9.70070952,15.1151724 9.29864545,15.5026159 C8.91120189,15.9022432 8.68458396,16.4505124 8.68458396,17.0109654 C8.68458396,17.5738551 8.91120189,18.1075038 9.29864545,18.5095678 C9.70070952,18.8970114 10.246542,19.1236293 10.8094317,19.1236293 L27.7497312,19.1382498 L27.761915,19.1382498 Z M21.857665,26.3534724 C23.0053752,26.3534724 23.9410879,25.4055759 23.9410879,24.2286247 C23.9410879,23.0516735 23.0053752,22.103777 21.857665,22.103777 L16.6990611,22.103777 C15.551351,22.103777 14.6156382,23.0516735 14.6156382,24.2286247 C14.6156382,25.4055759 15.551351,26.3534724 16.6990611,26.3534724 L21.857665,26.3534724 Z M14.618075,7.67089515 C13.4557443,7.67089515 12.505411,8.6066079 12.505411,9.78112234 C12.505411,10.9580735 13.4557443,11.9205906 14.618075,11.9205906 L23.9557084,11.9205906 C25.1180391,11.9205906 26.0659356,10.9580735 26.0659356,9.78112234 C26.0659356,8.6066079 25.1180391,7.67089515 23.9557084,7.67089515 L14.618075,7.67089515 Z" id="Layer"></path>
            </g>
        </g>
    </g>
</svg>