<?xml version="1.0" encoding="UTF-8"?>
<svg width="300px" height="100px" viewBox="0 0 300 100" version="1.1" xmlns="http://www.w3.org/2000/svg" xmlns:xlink="http://www.w3.org/1999/xlink">
    <title>02_badoo</title>
    <g id="02_badoo" stroke="none" fill="none" fill-rule="nonzero">
        <g id="badoo" transform="translate(76, 33)" fill="#C8001A">
            <path d="M131.295,25.2789 C126.58,25.2789 123.271,21.8339 123.271,16.9839 C123.271,12.1338 126.58,8.68883 131.295,8.68883 C136.009,8.68883 139.318,12.1338 139.318,16.9839 C139.318,21.8339 136.009,25.2789 131.295,25.2789 Z M98.8397,25.2789 C94.1256,25.2789 90.8166,21.8339 90.8166,16.9839 C90.8166,12.1338 94.1256,8.68883 98.8397,8.68883 C103.554,8.68883 106.863,12.1338 106.863,16.9839 C106.863,21.8339 103.554,25.2789 98.8397,25.2789 Z M64.3904,25.2335 C64.1185,25.2335 63.9371,25.0522 63.9371,24.7803 L63.9371,9.18744 C63.9371,8.91547 64.1185,8.73416 64.3904,8.73416 L66.3849,8.73416 C71.099,8.73416 74.4079,12.1338 74.4079,16.9839 C74.4079,21.8339 71.099,25.2335 66.3849,25.2335 L64.3904,25.2335 Z M39.732,26.2761 C36.9217,26.2761 35.4712,25.1882 35.4712,23.0125 C35.4712,21.29 37.103,20.0662 39.46,20.0662 L45.262,20.0662 C45.534,20.0662 45.7153,20.2475 45.7153,20.5194 L45.7153,22.1059 C45.7153,24.1457 42.361,26.2761 39.732,26.2761 L39.732,26.2761 Z M8.90895,13.9015 C8.63698,13.9015 8.45567,13.7202 8.45567,13.4483 L8.45567,9.18744 C8.45567,8.91547 8.63698,8.73416 8.90895,8.73416 L14.4843,8.73416 C16.5694,8.73416 17.7932,9.68604 17.7932,11.3179 C17.7932,12.9497 16.5694,13.9015 14.4843,13.9015 L8.90895,13.9015 Z M8.90895,25.2335 C8.63698,25.2335 8.45567,25.0522 8.45567,24.7803 L8.45567,20.5194 C8.45567,20.2475 8.63698,20.0662 8.90895,20.0662 L15.5722,20.0662 C17.6573,20.0662 18.8811,21.018 18.8811,22.6499 C18.8811,24.2817 17.6573,25.2335 15.5722,25.2335 L8.90895,25.2335 Z M98.8397,33.3019 C105.911,33.3019 111.804,29.4491 114.115,23.1485 C114.297,22.6952 114.659,22.4685 115.067,22.4685 C115.475,22.4685 115.838,22.6952 116.019,23.1485 C118.331,29.4491 124.223,33.3019 131.295,33.3019 C140.677,33.3019 147.703,26.4121 147.703,16.9839 C147.703,7.55563 140.677,0.665771 131.295,0.665771 C124.223,0.665771 118.331,4.51865 116.019,10.8192 C115.838,11.2725 115.475,11.4992 115.067,11.4992 C114.659,11.4992 114.297,11.2725 114.115,10.8192 C111.804,4.51865 105.911,0.665771 98.8397,0.665771 C91.7685,0.665771 85.8759,4.51865 83.5642,10.8192 C83.3829,11.2725 83.0202,11.4992 82.6123,11.4992 C82.2043,11.4992 81.8417,11.2725 81.6604,10.8192 C79.394,4.83595 73.5467,1.11905 66.3849,1.11905 L56.6847,1.11905 C56.1861,1.11905 55.7781,1.527 55.7781,2.02561 L55.7781,21.9699 C55.7781,22.5139 55.3701,22.8765 54.8262,22.8765 C54.2823,22.8765 53.8743,22.5139 53.8743,21.9699 L53.8743,13.3123 C53.8743,5.06259 49.3869,0.665771 40.9558,0.665771 C32.5248,0.665771 28.2187,4.51865 27.992,10.366 C27.992,10.9099 28.3547,11.3179 28.8986,11.3179 L35.5165,11.3179 C35.9698,11.3179 36.3324,11.0006 36.423,10.5019 C36.831,8.46219 38.5988,7.28366 40.9558,7.28366 C44.1741,7.28366 45.7153,8.9608 45.7153,11.7711 L45.7153,13.0403 C45.7153,13.5389 45.3073,13.9469 44.8087,13.9469 L38.1455,13.9469 C33.3861,13.9469 30.0318,15.896 28.128,18.7516 C27.8561,19.1596 27.5841,19.4316 27.1761,19.4316 C26.7682,19.4316 26.4962,19.1596 26.2242,18.7516 C25.5897,17.7998 24.6378,16.8932 23.2779,16.3039 C22.9153,16.1679 22.9153,15.9413 23.1419,15.76 C25.1364,14.1735 26.0883,12.3151 26.0883,9.95801 C26.0883,4.38267 22.1901,1.11905 15.5722,1.11905 L1.20319,1.11905 C0.704583,1.11905 0.296631,1.527 0.296631,2.02561 L0.296631,31.9421 C0.296631,32.4407 0.704583,32.8487 1.20319,32.8487 L16.0254,32.8487 C20.2863,32.8487 24.3205,30.6729 26.2242,27.5906 C26.4962,27.1827 26.7682,26.9107 27.1761,26.9107 C27.5841,26.9107 27.9014,27.1827 28.128,27.5906 C29.9865,30.9902 32.7515,33.1206 37.1483,33.1206 C40.5932,33.1206 43.0409,32.1234 45.398,29.4037 C45.5793,29.1771 45.8513,29.2224 45.8966,29.4944 C46.2592,30.9449 47.0298,31.9874 48.2537,32.8033 C48.5709,33.03 48.9336,32.9846 49.2055,32.758 L54.0103,29.1771 C54.8715,28.5425 55.7781,28.9051 55.7781,29.857 L55.7781,31.9421 C55.7781,32.4407 56.1861,32.8487 56.6847,32.8487 L66.3849,32.8487 C73.5467,32.8487 79.394,29.1318 81.6604,23.1485 C81.8417,22.6952 82.2043,22.4685 82.6123,22.4685 C83.0202,22.4685 83.3829,22.6952 83.5642,23.1485 C85.8759,29.4491 91.7685,33.3019 98.8397,33.3019 L98.8397,33.3019 Z" id="Shape"></path>
        </g>
    </g>
</svg>