<?xml version="1.0" encoding="UTF-8"?>
<svg width="300px" height="100px" viewBox="0 0 300 100" version="1.1" xmlns="http://www.w3.org/2000/svg" xmlns:xlink="http://www.w3.org/1999/xlink">
    <title>03_samsung</title>
    <g id="03_samsung" stroke="none" fill="none" fill-rule="evenodd">
        <path d="M53.7191946,56.8200919 C54.0242942,57.5865616 53.9275553,58.5688334 53.7787262,59.1641497 C53.5182753,60.2208361 52.8038958,61.2998468 50.6905231,61.2998468 C48.7110965,61.2998468 47.5055811,60.153863 47.5055811,58.4274458 L47.5055811,55.3541256 L39,55.3541256 L39,57.7949223 C39,64.7936091 44.4481462,66.9567927 50.3406773,66.9993565 L50.5193697,67 C56.2492887,67 60.9671701,65.0503392 61.7187568,59.759466 C62.1057124,57.0210112 61.8229372,55.2276209 61.688991,54.5653316 C60.3495294,47.9275553 48.3241409,45.9481287 47.4237251,42.2348435 C47.2987087,41.6871525 47.2882907,41.1193697 47.3939593,40.567958 L47.4273843,40.4284971 C47.6827769,39.4499719 48.399232,38.4397023 50.2886846,38.4397023 C52.1490479,38.4397023 53.2280587,39.5856861 53.2280587,41.3121033 L53.2280587,43.276647 L61.1383235,43.276647 L61.1383235,41.044211 C61.1383235,34.1385424 54.9395929,33.0595316 50.459838,33.0595316 L50.0973893,33.0621374 C44.6228392,33.1413954 40.1948734,35.0385581 39.3720727,40.0991464 C39.1488291,41.5130225 39.1116218,42.7780696 39.4464872,44.3705406 C40.8231561,50.8446049 52.0820749,52.7198512 53.7191946,56.8200919 Z M72.9330269,34.0715693 L67.0542788,65.7647188 L75.6193916,65.7647188 L79.9577588,37.0035019 L80.1363537,37.0035019 L84.3556577,65.7647188 L92.8761217,65.7647188 L87.0345809,34.0641278 L72.9330269,34.0715693 Z M120.818779,34.0715693 L116.912016,58.3009411 L116.725979,58.3009411 L112.826658,34.0715693 L99.9008536,34.0715693 L99.201357,65.7647188 L107.133946,65.7647188 L107.327424,37.2713942 L107.506019,37.2713942 L112.796892,65.7647188 L120.841103,65.7647188 L126.139418,37.2788356 L126.310571,37.2788356 L126.51149,65.7647188 L134.436638,65.7647188 L133.737142,34.0641278 L120.818779,34.0715693 Z M156.760998,56.7605603 C157.05004,57.4866895 156.978429,58.4065026 156.843545,59.007493 L156.82053,59.1046181 C156.560079,60.1613044 155.845699,61.2403152 153.732327,61.2403152 C151.7529,61.2403152 150.547385,60.0943314 150.547385,58.3679142 L150.547385,55.294594 L142.041803,55.294594 L142.041803,57.7353907 C142.041803,64.8047713 147.600569,66.9404684 153.561173,66.9404684 L153.92169,66.937863 C159.487982,66.8568965 164.024796,64.8794208 164.76056,59.6999343 C165.147516,56.9614795 164.864741,55.1680893 164.730794,54.5058 C163.391333,47.8680236 151.365944,45.8885971 150.465529,42.1753119 C150.340512,41.6276209 150.330094,41.059838 150.435763,40.5084264 C150.659006,39.4889473 151.351062,38.3801707 153.330488,38.3801707 C155.190851,38.3801707 156.269862,39.5261545 156.269862,41.2525717 L156.269862,43.2171153 L164.180127,43.2171153 L164.180127,40.9846794 C164.180127,34.0790107 157.981396,33 153.501641,33 L153.139193,33.0026058 C147.664643,33.0818637 143.236677,34.9790265 142.413876,40.0396148 C142.190633,41.4534909 142.153425,42.718538 142.488291,44.311009 C143.86496,50.7850733 155.123878,52.6603195 156.760998,56.7605603 Z M183.364193,61.0170716 C185.566864,61.0170716 186.244036,59.4990151 186.400306,58.725104 C186.458908,58.4255855 186.47193,58.0349092 186.47427,57.6677345 L186.474721,34.0715693 L194.49673,34.0715693 L194.49673,56.7903261 C194.498096,57.4853578 194.473539,58.1803896 194.422193,58.873933 C193.864084,64.7898884 189.190851,66.7097833 183.364193,66.7097833 L183.015564,66.7074628 C177.344811,66.6313891 172.845699,64.6715693 172.298752,58.873933 L172.281726,58.5929438 C172.258598,58.1699715 172.227448,57.462587 172.224011,56.9812738 L172.224338,34.0641278 L180.246225,34.0641278 L180.246225,57.5047056 C180.238783,57.921427 180.253666,58.3827971 180.320639,58.725104 C180.469468,59.4990151 181.154082,61.0170716 183.364193,61.0170716 Z M222.119282,34.0715693 L222.550886,58.9483476 L222.379733,58.9483476 L215.087109,34.0715693 L203.329613,34.0715693 L203.329613,65.4298534 L211.120814,65.4298534 L210.68921,39.6898665 L210.860363,39.6898665 L218.681331,65.4298534 L229.970015,65.4298534 L229.970015,34.0715693 L222.119282,34.0715693 Z M249.466623,60.6896476 C251.710841,60.6896476 252.528135,59.2983962 252.693949,58.4370392 L252.703655,58.3827971 C252.761061,58.0830129 252.774729,57.7121551 252.777462,57.3639472 L252.77807,52.5784636 L249.526155,52.5784636 L249.526155,47.9647625 L260.755308,47.9647625 L260.754794,56.6373745 C260.751512,57.1507901 260.730751,57.5954914 260.643686,58.5465091 C260.127993,64.2633311 255.214399,66.3407624 249.664751,66.3817393 L249.496389,66.3823594 C243.878091,66.3823594 238.877435,64.3210768 238.349092,58.5465091 L238.293978,57.8588723 C238.252957,57.3034608 238.239284,56.9577123 238.23747,56.5510704 L238.23747,43.1278179 C238.23747,42.5622675 238.311884,41.5651127 238.371416,41.044211 C239.071285,35.1726811 243.782506,33.2468635 249.328089,33.2089343 L249.496389,33.2083607 C255.058503,33.2083607 259.942334,35.0608763 260.602648,40.8598334 L260.621361,41.0367695 C260.725542,42.0488072 260.695776,43.1203764 260.695776,43.1203764 L260.695776,44.1845043 L252.703655,44.1845043 L252.702987,42.3320983 C252.700145,42.1327724 252.685229,41.5739716 252.606916,41.2004815 L252.587263,41.114151 C252.40858,40.3773898 251.767637,38.893631 249.436857,38.893631 C247.130007,38.893631 246.452834,40.4191289 246.281681,41.2004815 C246.184942,41.6172029 246.147735,42.1827533 246.147735,42.6962136 L246.147735,57.1847231 C246.147735,57.5865616 246.162618,58.0330488 246.222149,58.3902386 C246.370978,59.2385642 247.174655,60.6896476 249.466623,60.6896476 Z" id="Shape" fill="#034EA2"></path>
    </g>
</svg>