<?xml version="1.0" encoding="UTF-8"?>
<svg width="300px" height="100px" viewBox="0 0 300 100" version="1.1" xmlns="http://www.w3.org/2000/svg" xmlns:xlink="http://www.w3.org/1999/xlink">
    <title>04_sainsburys</title>
    <g id="04_sainsburys" stroke="none" fill="none" fill-rule="evenodd" stroke-width="1">
        <g id="logo" transform="translate(51, 31)" fill="#F36717">
            <path d="M32.7410741,30.4067879 C30.1473431,30.4067879 27.1682092,29.8737967 25.2458559,28.9165637 C24.7193179,28.6273622 24.5259593,28.194755 24.5259593,27.7633429 L24.5259593,25.6038921 C24.5259593,24.9251051 25.0553653,24.6406838 25.3443278,24.6406838 C25.9195041,24.6406838 26.3517528,25.1700898 26.6402372,25.3612974 C28.4173923,26.558735 30.1940694,27.3821227 32.5501055,27.3821227 C35.4770158,27.3821227 35.9102205,25.4592913 35.9102205,23.1038528 L35.9018552,23.0154193 C35.9018552,21.913705 35.5260127,21.7101884 31.3489633,21.1807824 C28.8020781,20.845213 22.9892477,19.6925898 22.9892477,14.4568478 C22.9892477,10.1346001 26.4469981,7.82756094 30.4830319,7.82756094 C32.6929137,7.82756094 34.5172732,8.79292029 36.0554188,10.1346001 L36.150664,8.88541696 C36.150664,8.54972813 36.3919441,8.31024061 36.6304756,8.31024061 L41.0004057,8.31024061 C41.3369311,8.31024061 41.5783306,8.54972813 41.5783306,8.88541696 L41.5783306,23.8232713 C41.5783306,27.716736 39.511257,30.4067879 32.7410741,30.4067879 L32.7410741,30.4067879 Z M35.8164093,12.9209728 C35.8164093,12.2913023 34.1754896,10.6018636 31.9586765,10.6018636 C29.4028285,10.6018636 28.4384252,12.436381 28.4384252,14.2682693 C28.4384252,16.8716802 30.4619991,19.2794619 35.8164093,19.2794619 L35.8164093,12.9209728" id="path2" transform="translate(32.2838, 19.1172) scale(-1, 1) rotate(-180) translate(-32.2838, -19.1172)"></path>
            <path d="M48.4190214,5.73861796 C46.2982901,5.73861796 45.2839338,4.48501316 45.2839338,3.03781067 C45.2839338,1.30379679 46.5368216,0.144600744 48.4190214,0.144600744 C50.2993091,0.144600744 51.4570711,1.30379679 51.4570711,3.03781067 C51.4570711,4.48501316 50.4449854,5.73861796 48.4190214,5.73861796" id="path3" transform="translate(48.3705, 2.9416) scale(-1, 1) rotate(-180) translate(-48.3705, -2.9416)"></path>
            <path d="M45.6704122,29.4156155 L45.6704122,8.96357307 C45.6704122,8.63350095 45.9121703,8.3880382 46.1521358,8.3880382 L50.7815107,8.3880382 C51.1171996,8.3880382 51.3603917,8.63350095 51.3603917,8.96357307 L51.3603917,29.4156155 C51.3603917,29.7514238 51.1171996,29.9964086 50.7815107,29.9964086 L46.1521358,29.9964086 C45.9121703,29.9964086 45.6704122,29.7514238 45.6704122,29.4156155" id="path4" transform="translate(48.5154, 19.1922) scale(-1, 1) rotate(-180) translate(-48.5154, -19.1922)"></path>
            <path d="M0.82016108,1.99977894 C8.92126839,-1.80847883 20.4478598,0.408453731 20.4478598,10.0995717 C20.4478598,19.0202426 5.16152953,18.4442297 5.16152953,23.9438381 C5.16152953,26.1606512 7.28321682,27.6532655 9.98235104,27.6532655 C12.3934788,27.6532655 14.2266816,26.8334629 16.1554883,25.4328673 C16.6872844,25.0504521 17.0247658,24.8078575 17.4574925,24.8078575 C17.9886911,24.8078575 18.1329333,25.1472509 18.1329333,25.5822482 L18.1329333,28.3738791 C18.1329333,28.8124615 18.037688,29.0550562 17.6017347,29.2462638 C15.9632051,29.8700786 13.0693977,30.5022587 9.88614971,30.5022587 C3.47448102,30.5022587 0,26.5454565 0,22.0592483 C0,12.3197309 15.0454087,14.3424682 15.0454087,7.73696285 C15.0454087,3.73403184 9.25970583,0.937381742 2.55716258,5.61814368 C1.92976266,6.05134839 1.63996365,6.29119442 1.20628092,6.29119442 C0.386478352,6.29119442 0.239487513,5.8552411 0.239487513,5.42203639 L0.239487513,2.96513829 C0.239487513,2.53193358 0.339393482,2.28694885 0.82016108,1.99977894" id="path5" transform="translate(10.2239, 15.37) scale(-1, 1) rotate(-180) translate(-10.2239, -15.37)"></path>
            <path d="M56.1344869,28.9352064 L56.1344869,8.48316398 C56.1344869,8.15309187 56.3754084,7.90762912 56.616808,7.90762912 L61.2461829,7.90762912 C61.5822303,7.90762912 61.8255419,8.15309187 61.8255419,8.48316398 L61.8255419,24.9795993 C62.7422629,25.5102004 64.6702329,26.4734086 66.3087625,26.4734086 C69.4939226,26.4734086 69.6862057,24.545797 69.6862057,22.907387 L69.6862057,8.48316398 C69.6862057,8.15309187 69.9261712,7.90762912 70.1688854,7.90762912 L74.7992163,7.90762912 C75.1349051,7.90762912 75.3757072,8.15309187 75.3757072,8.48316398 L75.3757072,23.386601 C75.3757072,27.2944062 73.3026584,29.9964086 68.6708934,29.9964086 C66.0198,29.9964086 63.2221939,28.6926118 61.7759475,27.8226172 L61.6803437,27.8226172 L61.6803437,28.9352064 C61.6803437,29.2710148 61.4394221,29.5159995 61.1014627,29.5159995 L56.616808,29.5159995 C56.3754084,29.5159995 56.1344869,29.2710148 56.1344869,28.9352064" id="path6" transform="translate(65.7551, 18.952) scale(-1, 1) rotate(-180) translate(-65.7551, -18.952)"></path>
            <path d="M93.0760333,29.1840596 C86.8071728,31.7928483 78.4132789,30.3922526 78.4132789,23.5924325 C78.4132789,15.9232154 90.5664336,17.5151381 90.5664336,13.3688014 C90.5664336,10.0371286 84.8273377,9.70155922 80.6811205,12.8861217 C80.3912019,13.1260873 80.1012834,13.2680589 79.76428,13.2680589 C79.2825564,13.2680589 78.9935939,13.0766123 78.9935939,12.4034421 L78.9935939,10.5249469 C78.9935939,9.99099972 79.1368801,9.55958758 79.7175537,9.27110312 C85.0692153,6.85866079 94.906846,6.80727375 94.906846,15.6833693 C94.906846,23.303231 82.6099271,21.56611 82.6099271,25.3754433 C82.6099271,28.5076628 88.6379855,28.2184613 92.1124665,25.8606326 C92.399995,25.6670349 92.7846807,25.4734372 93.0273949,25.4734372 C93.507804,25.4734372 93.7999931,25.6670349 93.7999931,26.3398467 L93.7999931,27.9328449 C93.7999931,28.463446 93.6530022,28.9462452 93.0760333,29.1840596" id="path7" transform="translate(86.6601, 19.1499) scale(-1, 1) rotate(-180) translate(-86.6601, -19.1499)"></path>
            <path d="M196.950755,29.1840596 C190.683926,31.7928483 182.289912,30.3922526 182.289912,23.5924325 C182.289912,15.9232154 194.445935,17.5151381 194.445935,13.3688014 C194.445935,10.0371286 188.703732,9.70155922 184.556917,12.8861217 C184.268911,13.1260873 183.977319,13.2680589 183.640316,13.2680589 C183.157517,13.2680589 182.86951,13.0766123 182.86951,12.4034421 L182.86951,10.5249469 C182.86951,9.99099972 183.014111,9.55958758 183.593709,9.27110312 C188.943937,6.85866079 198.786348,6.80727375 198.786348,15.6833693 C198.786348,23.303231 186.488114,21.56611 186.488114,25.3754433 C186.488114,28.5076628 192.514738,28.2184613 195.988741,25.8606326 C196.276748,25.6670349 196.662748,25.4734372 196.901758,25.4734372 C197.384557,25.4734372 197.676148,25.6670349 197.676148,26.3398467 L197.676148,27.9328449 C197.676148,28.463446 197.529158,28.9462452 196.950755,29.1840596" id="path8" transform="translate(190.5381, 19.1499) scale(-1, 1) rotate(-180) translate(-190.5381, -19.1499)"></path>
            <path d="M149.594608,23.0729609 C149.594608,25.3877679 150.414411,26.8349704 155.430025,25.5311736 C156.057425,25.3877679 156.443426,25.2431671 156.974027,25.2431671 C157.30864,25.2431671 157.600231,25.5789755 157.600231,25.9159789 L157.600231,28.7625819 C157.600231,29.2441861 157.262033,29.6266013 156.633438,29.7735921 C153.16302,30.5945897 151.041811,29.0051766 149.25641,27.3153795 L149.162001,27.3643764 L149.162001,28.9561796 C149.162001,29.291988 148.918212,29.5369727 148.582403,29.5369727 L144.386592,29.5369727 C144.145192,29.5369727 143.903792,29.291988 143.903792,28.9561796 L143.903792,8.5041372 C143.903792,8.17406509 144.145192,7.92860234 144.386592,7.92860234 L149.013815,7.92860234 C149.354404,7.92860234 149.594608,8.17406509 149.594608,8.5041372 L149.594608,23.0729609" id="path9" transform="translate(150.752, 18.9625) scale(-1, 1) rotate(-180) translate(-150.752, -18.9625)"></path>
            <path d="M181.807113,0 C184.075313,0 186.63152,8.48961724 182.435708,8.48961724 L180.168703,8.48961724 C179.639297,8.48961724 179.543693,8.106007 179.543693,7.81561046 C179.543693,7.23601244 180.98731,5.78880995 180.98731,3.81220143 C180.98731,1.78898607 180.218895,1.06359225 180.218895,0.436192327 C180.218895,0.191207595 180.4591,0 180.794908,0 L181.807113,0" id="path10" transform="translate(182.1126, 4.2448) scale(-1, 1) rotate(-180) translate(-182.1126, -4.2448)"></path>
            <path d="M169.606873,23.0488806 L169.318867,23.964765 L164.737055,37.4682039 C164.591259,37.8530092 164.401247,38 163.965054,38 L159.046239,38 C158.755842,38 158.613632,37.8530092 158.613632,37.5638077 C158.613632,37.4192069 158.659044,37.2722161 158.855031,36.791807 L166.858264,17.3592596 C168.209863,14.0770617 164.256646,11.7160064 160.443249,12.776611 C159.866041,12.9213313 159.480041,13.0655735 158.94944,13.0655735 C158.613632,13.0655735 158.323235,12.7279726 158.323235,12.3924033 L158.323235,9.64188201 C158.323235,9.06073043 158.709236,8.3880382 160.830445,8.3880382 C165.942858,8.3880382 168.691467,10.9909711 171.150875,17.1170235 L179.059699,36.9364078 C179.156498,37.2256092 179.252102,37.37021 179.252102,37.5638077 C179.252102,37.8040122 179.059699,38 178.820689,38 L175.393293,38 C175.057485,38 174.816085,37.8040122 174.719286,37.4682039 L169.994069,23.964765 L169.606873,23.0488806" id="path11" transform="translate(168.7877, 23.194) scale(-1, 1) rotate(-180) translate(-168.7877, -23.194)"></path>
            <path d="M139.755783,9.44350413 L139.755783,29.8955466 C139.755783,30.2313549 139.515578,30.4763396 139.275374,30.4763396 L134.644565,30.4763396 C134.307561,30.4763396 134.066162,30.2313549 134.066162,29.8955466 L134.066162,13.4016209 C133.150755,12.8726929 131.220754,11.9078115 129.582343,11.9078115 C126.401127,11.9078115 126.205139,13.832555 126.205139,15.4761038 L126.205139,29.8955466 C126.205139,30.2313549 125.96374,30.4763396 125.723535,30.4763396 L121.095116,30.4763396 C120.755723,30.4763396 120.514323,30.2313549 120.514323,29.8955466 L120.514323,14.9939021 C120.514323,11.089443 122.588926,8.3880382 127.219735,8.3880382 C129.87035,8.3880382 132.667956,9.69135698 134.113964,10.5554958 L134.211957,10.5554958 L134.211957,9.44350413 C134.211957,9.11343202 134.449772,8.86796927 134.789165,8.86796927 L139.275374,8.86796927 C139.515578,8.86796927 139.755783,9.11343202 139.755783,9.44350413" id="path12" transform="translate(130.1351, 19.4322) scale(-1, 1) rotate(-180) translate(-130.1351, -19.4322)"></path>
            <path d="M97.5126471,29.8464301 C97.5126471,30.1882137 97.7524931,30.4296133 97.9943707,30.4296133 L102.623268,30.4296133 C102.959434,30.4296133 103.201193,30.1882137 103.201193,29.8464301 L103.201193,20.2047871 L103.201193,20.2501989 C104.119467,21.0221996 106.240676,22.7131918 109.519887,22.7131918 C114.487699,22.7131918 117.621113,18.3715843 117.621113,12.5845669 C117.621113,5.15794439 112.460898,0.237814447 106.09488,0.237814447 C102.623268,0.237814447 100.06742,1.4449319 98.3785785,2.74825067 C97.6564113,3.27717868 97.5126471,4.18744634 97.5126471,4.96243463 L97.5126471,29.8464301 Z M103.878067,3.37015337 C104.358477,3.08346149 105.08148,2.84349595 106.480881,2.84349595 C109.567688,2.84349595 111.7367,6.02530985 111.7367,11.4235783 C111.7367,13.4509763 111.304092,19.1471701 106.914683,19.1471701 C105.180669,19.1471701 103.924674,18.1767915 103.201193,17.6497756 L103.201193,4.62674579 C103.201193,4.18744634 103.299186,3.75758777 103.878067,3.37015337" id="path13" transform="translate(107.5669, 15.3337) scale(-1, 1) rotate(-180) translate(-107.5669, -15.3337)"></path>
        </g>
    </g>
</svg>