<?xml version="1.0" encoding="UTF-8"?>
<svg width="200px" height="100px" viewBox="0 0 200 100" version="1.1" xmlns="http://www.w3.org/2000/svg" xmlns:xlink="http://www.w3.org/1999/xlink">
    <title>05_tu</title>
    <g id="05_tu" stroke="none" fill="none" fill-rule="nonzero">
        <path d="M110.325,28 L72.925,28 L72.925,35.7 L87.225,35.7 L87.225,71.725 L96.025,71.725 L96.025,35.7 L110.325,35.7 L110.325,28 Z M119.125,49.725 L119.125,58.8 C119.125,61 118.575,62.1 117.75,62.925 C116.925,63.75 116.1,64.025 114.725,64.025 C113.35,64.025 112.525,63.475 111.7,62.925 C110.875,62.1 110.325,61 110.325,58.8 L110.325,47.25 L102.075,47.25 L102.075,58.8 C102.075,62.65 103.45,65.95 105.65,68.425 C107.85,70.9 111.15,72 114.725,72 C118.025,72 121.325,70.625 123.8,68.425 C126.275,65.95 127.375,62.65 127.375,58.8 L127.375,44.775 C122.975,48.35 121.325,46.15 119.675,48.35 C119.4,48.35 119.125,48.9 119.125,49.725 L119.125,49.725 Z" id="Shape" fill="#000000"></path>
    </g>
</svg>