<?xml version="1.0" encoding="UTF-8"?>
<svg width="300px" height="100px" viewBox="0 0 300 100" version="1.1" xmlns="http://www.w3.org/2000/svg" xmlns:xlink="http://www.w3.org/1999/xlink">
    <title>06_starcom</title>
    <g id="06_starcom" stroke="none" fill="none" fill-rule="evenodd" stroke-width="1">
        <g id="Group" transform="translate(54, 26)" fill="#DCBF4C">
            <path d="M46.7288101,23.0862902 C45.9325736,22.626674 43.6539131,22.225319 41.8737096,21.3060867 C40.0935061,20.3868543 37.1157112,18.2052959 36.0475891,17.583843 C34.979467,16.9623902 36.3194747,17.0465452 35.4843974,17.583843 C34.6428467,18.1211408 32.9209044,19.7395076 31.030652,20.8205766 C29.1403995,21.9016457 26.7257963,23.1963391 24.1558298,24.0573103 C21.5793898,24.9182814 18.3426562,25.6627301 15.5720122,25.9993504 C12.8078417,26.3359707 8.98202253,25.9993504 7.5643332,26.0835055 C6.14664387,26.1611871 6.30848055,25.9022484 7.07882316,26.4848605 C7.84916576,27.0674725 10.3932384,28.155015 12.1799153,29.5597574 C13.9536454,30.9644998 16.2517262,33.1460583 17.7600441,34.9003679 C19.268362,36.6546775 20.2134882,38.0723669 21.2427695,40.0791417 C22.2655773,42.0859165 23.3854872,45.7563725 23.909838,46.9539639 C24.4341889,48.1580288 23.8321564,48.3975471 24.3953481,47.2776373 C24.9585397,46.1642009 26.2532332,42.3189614 27.3084083,40.2409784 C28.3635835,38.1629954 30.920603,36.1821144 30.7069786,34.8226863 C30.4933542,33.4567847 27.7421306,32.8806461 26.0137149,32.0649892 C24.2852991,31.2622793 21.333398,30.3948347 20.349431,29.9675859 C19.365464,29.5338636 18.5692275,29.5856513 20.1034393,29.4756023 C21.6441245,29.3720269 26.874686,29.5597574 29.5741219,29.3202391 C32.2735577,29.0742474 34.4162754,28.4657415 36.2871074,28.0255457 C38.1644129,27.5788764 39.0965922,27.3069908 40.8185345,26.6466972 C42.5469502,25.9864035 45.660688,24.6528692 46.644655,24.0573103 C47.6350955,23.4617513 47.5250465,23.5459063 46.7288101,23.0862902 Z" id="Path"></path>
            <path d="M121.659193,14.5866277 C121.238418,14.4959991 120.377447,14.3212155 119.471162,14.5089461 C118.57135,14.6966766 117.004771,15.2792887 116.234428,15.7259579 C115.470559,16.1661537 115.159832,16.988284 114.862053,17.1760146 C114.564273,17.3702186 114.564273,17.2860635 114.460698,16.8523412 C114.350649,16.4250924 114.849106,14.9815092 114.214706,14.5866277 C113.580306,14.1982196 111.32754,14.4701053 110.654299,14.5089461 C109.981059,14.5477869 110.265891,11.945453 110.168789,14.8326194 C110.071687,17.7197858 110.045793,28.8994638 110.084634,31.825471 C110.129948,34.7514782 109.696226,32.2980341 110.408307,32.3886626 C111.126862,32.4857646 113.690355,33.7157234 114.376543,32.3886626 C115.06273,31.0680753 114.402437,26.187081 114.53838,24.4651387 C114.674322,22.7367229 114.764951,22.8144045 115.185726,22.031115 C115.606502,21.2542989 116.48042,20.257385 117.050085,19.7654015 C117.613276,19.2863649 117.78806,19.3122588 118.584297,19.1180547 C119.380533,18.9303242 121.257839,19.3122588 121.82103,18.6390182 C122.384222,17.9593041 122.008761,15.7518518 121.982867,15.0786112 C121.956973,14.3988971 122.079969,14.6837297 121.659193,14.5866277 Z" id="Path"></path>
            <path d="M164.384077,14.6707827 C163.775571,17.6679981 163.982722,29.4950227 164.545914,32.4728177 C165.109106,35.4506126 167.09646,32.6087605 167.782648,32.5569728 C168.468835,32.4987116 168.494729,34.1170784 168.669513,32.1491443 C168.85077,30.1812103 168.630672,22.9374004 168.837823,20.7364216 C169.0385,18.5419162 169.452802,19.3640465 169.886524,18.9626915 C170.320247,18.5548631 170.760443,18.3671325 171.42721,18.3153448 C172.087503,18.2570836 173.20094,18.2829775 173.848286,18.6390182 C174.495633,18.9885854 175.000564,18.1211408 175.31129,20.4127482 C175.615543,22.7108291 174.955249,30.4077816 175.712645,32.3886626 C176.470041,34.3760171 179.111215,34.2530212 179.842717,32.310981 C180.567745,30.3689408 179.946293,22.8856127 180.082235,20.7364216 C180.218178,18.5937039 180.392962,19.7977688 180.645427,19.4417281 C180.904366,19.0921609 181.053256,18.8267487 181.616447,18.6390182 C182.186112,18.4448142 183.383704,18.2570836 184.050471,18.3153448 C184.710764,18.3671325 185.15096,18.5419162 185.584683,18.9626915 C186.018405,19.3769934 186.445654,18.6390182 186.639858,20.8205766 C186.827588,23.0021351 186.620437,30.1229491 186.717539,32.0649892 C186.814641,34.0070294 186.516862,32.408083 187.203049,32.4728177 C187.889237,32.5375524 190.239106,34.8485802 190.847611,32.4728177 C191.449644,30.0970552 191.248966,21.1054092 190.847611,18.2311897 C190.439783,15.3569703 189.442869,15.9654762 188.413588,15.2339744 C187.39078,14.5089461 185.947197,13.9845952 184.697818,13.8615993 C183.441965,13.7386035 181.940121,14.120538 180.891419,14.5089461 C179.842717,14.8973541 179.137109,16.1791006 178.379714,16.2049945 C177.628791,16.2373618 177.08502,15.0591908 176.359992,14.6707827 C175.634963,14.2823747 174.851674,13.9133871 174.016597,13.8615993 C173.175046,13.8098116 172.126344,14.036383 171.343055,14.3471094 C170.559765,14.6578358 169.847684,15.6935906 169.316859,15.7259579 C168.792509,15.7518518 169.012606,14.6837297 168.190476,14.5089461 C167.361872,14.3341624 164.992583,11.6735674 164.384077,14.6707827 Z" id="Path"></path>
            <path d="M151.760816,13.8615993 C150.492017,13.9392809 149.106695,14.4701053 148.038573,14.9944561 C146.97045,15.518807 146.096532,16.2373618 145.365031,17.0206514 C144.640002,17.7974674 144.044443,18.9626915 143.668982,19.6877199 C143.293521,20.4127482 143.222313,20.6975808 143.099317,21.3837683 C142.982795,22.0764293 142.859799,22.8985596 142.943954,23.817792 C143.021635,24.7305509 143.047529,25.7598321 143.591301,26.8862154 C144.128598,28.0255457 145.222614,29.6698064 146.180687,30.6149326 C147.132287,31.5535853 148.200409,32.1491443 149.333266,32.5569728 C150.466123,32.9583277 151.747869,33.1460583 152.977828,33.0360093 C154.201313,32.9324339 155.606056,32.4857646 156.693598,31.909626 C157.787614,31.327014 158.816895,30.3689408 159.528977,29.5597574 C160.241058,28.750574 160.63594,27.8183947 160.985507,27.0545256 C161.335074,26.284183 161.509858,25.7404117 161.632854,24.9441753 C161.75585,24.1544123 161.930633,23.3711227 161.717009,22.2771068 C161.496911,21.1830908 160.933719,19.4611485 160.33816,18.3930264 C159.742601,17.3249043 158.933418,16.5286678 158.156602,15.8813211 C157.373312,15.2339744 156.713019,14.8455664 155.644897,14.5089461 C154.576774,14.1723258 153.029616,13.7839177 151.760816,13.8615993 Z M151.922653,18.5548631 C152.57,18.470708 153.107297,18.5419162 153.702856,18.7166998 C154.298415,18.8914834 155.023444,19.2669445 155.48306,19.6100383 C155.942676,19.9466586 156.182194,20.2250176 156.45408,20.7364216 C156.725966,21.2542989 157.017272,21.9793273 157.101427,22.6784617 C157.185582,23.3840697 157.075533,24.3421428 156.93959,24.9441753 C156.803647,25.5526812 156.654757,25.8634076 156.292243,26.3230238 C155.929729,26.78264 155.347117,27.3587786 154.751558,27.7018723 C154.162473,28.0384926 153.418024,28.2909578 152.731836,28.349219 C152.045649,28.4010068 151.178204,28.2003293 150.627959,28.0255457 C150.077715,27.8442886 149.818776,27.669505 149.417421,27.2940439 C149.009593,26.9185828 148.498189,26.3100769 148.200409,25.7598321 C147.90263,25.203114 147.727846,24.4910326 147.630744,23.9731552 C147.540116,23.4617513 147.501275,23.2481269 147.630744,22.6784617 C147.766687,22.1152701 148.077413,21.1571969 148.446401,20.5810583 C148.808915,19.9984463 149.236164,19.5388301 149.818776,19.2022098 C150.401388,18.8655895 151.275306,18.6390182 151.922653,18.5548631 Z" id="Shape"></path>
            <path d="M131.615386,13.8615993 C130.249485,13.9975422 128.391599,14.6966766 127.239322,15.3181295 C126.093519,15.9395823 125.446172,16.5739821 124.73409,17.583843 C124.022009,18.5937039 123.264613,20.147336 122.953887,21.3837683 C122.643161,22.626674 122.682001,23.8695797 122.876205,25.0283303 C123.063936,26.187081 123.562393,27.3911459 124.086744,28.349219 C124.611095,29.3008187 125.258441,30.0841083 126.028784,30.7702958 C126.799126,31.4629568 127.582416,32.0973566 128.702326,32.4728177 C129.815762,32.8482788 131.64128,33.0360093 132.741769,33.0360093 C133.848732,33.0360093 134.392504,32.8935931 135.331156,32.4728177 C136.276283,32.0520423 137.583923,31.2622793 138.412527,30.5307775 C139.234657,29.7992757 139.83669,28.8994638 140.270412,28.1032273 C140.704134,27.3069908 141.552158,26.187081 141.001914,25.7598321 C140.445195,25.3261098 138.1018,25.1513262 136.949523,25.5138404 C135.803719,25.8763546 134.832699,27.4817744 134.120618,27.9413906 C133.408537,28.4010068 133.285541,28.252117 132.664088,28.265064 C132.042635,28.2780109 131.045721,28.2391701 130.398374,28.0255457 C129.751028,27.8054478 129.239624,27.4688275 128.780007,26.9703705 C128.320391,26.4719135 127.860775,25.7404117 127.647151,25.0283303 C127.433526,24.3162489 127.375265,23.4358574 127.485314,22.6784617 C127.595363,21.9275395 127.886669,21.1054092 128.294497,20.4969033 C128.702326,19.8883973 129.200783,19.3640465 129.912864,19.0403731 C130.624946,18.7166998 131.79017,18.5289692 132.586406,18.5548631 C133.376169,18.580757 133.958781,18.6519651 134.68381,19.2022098 C135.415311,19.7524545 135.952609,21.4161356 136.949523,21.8757518 C137.952911,22.3288945 139.972632,22.0893762 140.67824,21.9534334 C141.377375,21.8174906 141.280273,21.6815478 141.157277,21.0600949 C141.040754,20.4451155 140.458142,19.066267 139.946738,18.2311897 C139.435335,17.3961125 138.839776,16.6646107 138.088853,16.0496313 C137.331458,15.4281784 136.49638,14.8714602 135.415311,14.5089461 C134.334242,14.1464319 132.974814,13.7256565 131.615386,13.8615993 Z" id="Path"></path>
            <path d="M90.5088691,16.2049945 C89.6673183,17.1242268 88.5797758,18.9044303 88.0748454,20.0890748 C87.5763884,21.2801928 87.5246007,22.2123721 87.5116537,23.3258085 C87.4987068,24.4457183 87.6346496,25.7145179 87.9971638,26.8085338 C88.3596779,27.9025498 88.9811308,29.0224596 89.6932122,29.8834308 C90.4117671,30.7444019 91.3698402,31.4759037 92.2825991,31.9873076 C93.2018315,32.4987116 94.0692761,32.8482788 95.1956594,32.9583277 C96.3349896,33.0683767 98.043985,32.9324339 99.0797397,32.6346544 C100.121968,32.3368749 100.892311,31.2040181 101.429608,31.1781242 C101.966906,31.1522304 101.52671,32.2721402 102.316473,32.4728177 C103.11271,32.6734952 105.514366,35.3470371 106.200554,32.3886626 C106.893215,29.4367615 106.51128,17.7456797 106.446545,14.7549378 C106.381811,11.7577225 106.446545,14.4830522 105.799199,14.4312645 C105.151852,14.3730033 103.209812,14.3730033 102.562465,14.4312645 C101.915118,14.4830522 102.064008,14.5607338 101.915118,14.7549378 C101.766229,14.9426684 101.779176,15.4281784 101.669127,15.5576478 C101.565551,15.6935906 101.604392,15.7389048 101.267772,15.5576478 C100.931151,15.3828641 100.542743,14.7937786 99.6494048,14.5089461 C98.7560664,14.2241135 97.0211771,13.8486524 95.9271612,13.8615993 C94.8331452,13.8745463 93.9980679,14.1982196 93.098256,14.5866277 C92.1919706,14.9815092 91.3439464,15.2922356 90.5088691,16.2049945 Z M96.5745079,18.470708 C97.3836913,18.5289692 99.0408989,18.8267487 99.8112415,19.2022098 C100.581584,19.5776709 100.866417,20.160283 101.19009,20.7364216 C101.513763,21.3190336 101.669127,22.0052211 101.753282,22.6784617 C101.837437,23.3581758 101.792122,24.1673592 101.669127,24.7888121 C101.552604,25.4037914 101.332506,25.9346158 101.02178,26.4071789 C100.717527,26.8732685 100.374433,27.2810969 99.8112415,27.6177172 C99.2480499,27.9543375 98.3547114,28.3297986 97.6296831,28.4269007 C96.8981813,28.5240027 96.0760509,28.3751129 95.4416511,28.1809089 C94.8072513,27.9931783 94.2958474,27.7148193 93.8232843,27.2940439 C93.3507212,26.8732685 92.8781581,26.2712361 92.6062725,25.6756771 C92.3408603,25.0801181 92.2178644,24.4327714 92.2049175,23.7336369 C92.1919706,23.0345024 92.3408603,22.0893762 92.5285909,21.4679234 C92.7163214,20.8464705 92.9299458,20.4451155 93.3377743,20.0113932 C93.7456027,19.5776709 94.4188433,19.1374751 94.9561411,18.8785365 C95.4934389,18.6195978 95.7653245,18.4189203 96.5745079,18.470708 Z" id="Shape"></path>
            <path d="M64.6150001,13.8615993 C63.7863963,13.9587013 62.8477435,14.1852727 62.0256132,14.5866277 C61.1970094,14.9944561 60.2389362,15.5900151 59.6757446,16.2891496 C59.1125529,16.988284 58.7694591,18.0305122 58.6205694,18.7943814 C58.4781531,19.564724 58.6205694,20.3091727 58.7888795,20.9047317 C58.9442428,21.4938172 59.1902345,21.8757518 59.5915895,22.3547884 C59.9994179,22.8467719 59.876422,23.1510248 61.2099563,23.817792 C62.549964,24.4780856 66.4469913,25.7404117 67.6057419,26.3230238 C68.7644926,26.9056358 68.1041989,26.9962644 68.1754071,27.2940439 C68.2401417,27.5918234 68.3307703,27.7795539 68.0070969,28.1032273 C67.6834236,28.4269007 66.8807136,29.151929 66.2333669,29.2360841 C65.5860202,29.3202391 64.6926817,28.9253576 64.1230166,28.5887373 C63.5598249,28.252117 63.64398,27.4558806 62.8283231,27.2098888 C62.0256132,26.9703705 59.9476302,26.9833175 59.2679161,27.1322072 C58.5946755,27.2810969 58.7176714,27.6047703 58.7888795,28.1032273 C58.8536142,28.6016843 59.2420223,29.5079697 59.6757446,30.1229491 C60.1094669,30.7444019 60.6726585,31.3658548 61.3782664,31.825471 C62.0774009,32.2850871 63.0354741,32.6734952 63.8834983,32.8806461 C64.7315225,33.0813236 65.6637018,33.0942705 66.4728852,33.0360093 C67.2820686,32.9842216 67.9164684,32.9453808 68.7385987,32.5569728 C69.5607291,32.1620913 70.7906878,31.3399609 71.4121407,30.6926142 C72.0271201,30.0452675 72.2860588,29.5209166 72.4608424,28.6728924 C72.635626,27.8183947 72.5967852,26.3618646 72.4608424,25.591522 C72.3248996,24.8276529 72.0012262,24.5039795 71.651659,24.0573103 C71.3020917,23.610641 71.554557,23.4941186 70.3569655,22.9244535 C69.1593741,22.3547884 65.5989671,21.1571969 64.4466899,20.65874 C63.3008862,20.160283 63.6828208,20.257385 63.4756698,19.9337116 C63.2749924,19.6100383 63.1714169,19.0403731 63.2361516,18.7166998 C63.3008862,18.3930264 63.533931,18.1664551 63.8834983,17.9916714 C64.2330655,17.8104144 64.8674653,17.6679981 65.3400284,17.6679981 C65.8125915,17.6679981 66.2333669,17.6679981 66.7124035,17.9916714 C67.204387,18.3153448 67.3597502,19.3381526 68.2530887,19.6100383 C69.1464272,19.8754504 71.3668264,19.7006668 72.0594874,19.6100383 C72.7456749,19.5129362 72.4737893,19.4999893 72.3831608,19.0403731 C72.2860588,18.580757 71.8652834,17.4608471 71.4898223,16.8523412 C71.1143612,16.2503088 70.8683694,15.8683742 70.1174472,15.4022845 C69.3600516,14.9297214 67.8776276,14.2823747 66.9583952,14.023436 C66.0391629,13.7644973 65.4371304,13.7644973 64.6150001,13.8615993 Z" id="Path"></path>
            <path d="M80.5526764,8.76050715 C79.9182767,8.83171529 80.2031092,8.60514393 79.9053297,9.16833558 C79.6075502,9.73152723 79.1932483,11.4211022 78.772473,12.1655509 C78.3516976,12.9035262 78.1251262,13.2013057 77.3936244,13.6156076 C76.6685961,14.036383 74.9142865,13.8615993 74.4028826,14.6707827 C73.8914786,15.4799662 74.2539928,17.7586266 74.325201,18.470708 C74.3899356,19.1892629 74.3057805,18.8785365 74.8042375,18.9626915 C75.309168,19.0403731 76.8304328,18.8914834 77.3159428,18.9626915 C77.8014529,19.0274262 77.6396162,17.8557286 77.7172978,19.3640465 C77.8014529,20.8723644 77.6137223,26.187081 77.8014529,28.0255457 C77.9891834,29.8575369 78.3970119,29.747488 78.856628,30.3689408 C79.3097707,30.9903937 79.9830113,31.4046956 80.5526764,31.7413159 C81.1223416,32.0844096 81.3618599,32.2721402 82.2487249,32.3886626 C83.1420633,32.5116585 85.2070994,32.5699197 85.8932869,32.4728177 C86.5794745,32.3757157 86.3140623,32.5116585 86.378797,31.825471 C86.4435316,31.1392834 86.4176378,28.9965658 86.3011154,28.349219 C86.1781195,27.7018723 86.1198583,28.0384926 85.6537686,27.9413906 C85.1812055,27.8442886 84.0354018,28.0384926 83.4657367,27.7795539 C82.8960716,27.5206152 82.4688228,27.8054478 82.2487249,26.4071789 C82.0351004,25.0024365 82.1192555,20.6198991 82.1710433,19.3640465 C82.222831,18.1081939 81.9962596,18.9432711 82.5723982,18.8785365 C83.1550103,18.8138018 85.0323158,19.0144793 85.6537686,18.9626915 C86.268748,18.9044303 86.1781195,19.2151568 86.3011154,18.5548631 C86.4176378,17.8945694 86.4564786,15.6676967 86.378797,14.9944561 C86.3011154,14.3212155 86.5147398,14.6319419 85.8091319,14.5089461 C85.1099974,14.3859502 82.5465044,14.6837297 82.1710433,14.2629543 C81.7955822,13.8486524 83.219745,12.8646854 83.5434183,11.9972408 C83.8670917,11.1362696 84.0871896,9.62795176 84.1130834,9.08418051 C84.1389773,8.54688273 84.300814,8.81876835 83.7117285,8.76050715 C83.1161695,8.70871941 81.1870762,8.69577247 80.5526764,8.76050715 Z" id="Path"></path>
            <path d="M24.7190214,0.590991476 C24.298246,-0.282926603 24.2723522,-0.0563552487 23.9875196,0.429154795 C23.7091605,0.914664839 23.6120585,2.09930935 23.0164995,3.50405174 C22.427414,4.90879413 21.2427695,7.41402596 20.4271126,8.84466222 C19.6244027,10.2752985 19.1065253,10.9355921 18.1613991,12.0813958 C17.2227463,13.2271995 16.3553017,14.3471094 14.7693022,15.7259579 C13.1768293,17.098333 10.8981688,19.0403731 8.61950836,20.3350666 C6.33437442,21.62976 2.39850633,22.8726658 1.09086595,23.4941186 C-0.216774435,24.109098 -0.378611116,23.9213674 0.767192587,24.0573103 C1.91299629,24.1932531 5.83591744,24.3939306 7.97216164,24.2968285 C10.1019324,24.2062 11.4613605,24.0702572 13.5522904,23.4941186 C15.6432203,22.9115066 18.3556031,22.0052211 20.5112677,20.8205766 C22.6669323,19.6359321 24.9585397,17.7197858 26.4992249,16.3733046 C28.0399101,15.02035 29.1274526,13.537926 29.7359585,12.7287426 C30.3444645,11.9195592 30.6810848,12.6899018 30.1373135,11.5182042 C29.6000157,10.3400332 27.4055103,7.51112797 26.4992249,5.69208367 C25.5929395,3.8665659 25.1397968,1.46490956 24.7190214,0.590991476 Z" id="Path"></path>
        </g>
    </g>
</svg>