<?xml version="1.0" encoding="UTF-8"?>
<svg width="300px" height="100px" viewBox="0 0 300 100" version="1.1" xmlns="http://www.w3.org/2000/svg" xmlns:xlink="http://www.w3.org/1999/xlink">
    <title>07_phd</title>
    <g id="07_phd" stroke="none" fill="none" fill-rule="evenodd" stroke-width="1">
        <g id="phd" transform="translate(87, 31)" fill="#360588">
            <path d="M126.665849,0 L126.665849,38 L106.399509,38 C98.003875,38 91.1993456,31.1954706 91.1993456,22.7998364 C91.1993456,14.4042022 98.003875,7.59967278 106.399509,7.59967278 L108.933006,7.59967278 L108.933006,0 L126.665849,0 Z" id="Path"></path>
            <path d="M35.4665031,15.1993456 C35.4665031,23.5949798 28.6619737,30.3995092 20.2663394,30.3995092 L17.7328425,30.3995092 L17.7328425,37.999182 L0,37.999182 L0,0 L20.2663394,0 C28.6619737,0 35.4665031,6.80452941 35.4665031,15.2001636 L35.4665031,15.2001636 L35.4665031,15.1993456 Z" id="Path"></path>
            <polygon id="Path" points="86.1331697 0 86.1331697 37.999182 68.4003272 37.999182 68.4003272 30.3995092 58.2663394 30.3995092 58.2663394 37.999182 40.5334969 37.999182 40.5334969 0 58.2663394 0 58.2663394 7.59967278 68.4003272 7.59967278 68.4003272 0"></polygon>
        </g>
    </g>
</svg>