<?xml version="1.0" encoding="UTF-8"?>
<svg width="300px" height="100px" viewBox="0 0 300 100" version="1.1" xmlns="http://www.w3.org/2000/svg" xmlns:xlink="http://www.w3.org/1999/xlink">
    <title>08_cavotagoo</title>
    <g id="08_cavotagoo" stroke="none" fill="none" fill-rule="evenodd" stroke-width="1">
        <g id="Group" transform="translate(11, 33)" fill="#9C8E61">
            <path d="M16.6891289,1.78200144 C21.2665227,1.78200144 25.3053996,3.70597552 28.0616271,7.19654428 C28.3308855,7.51965443 28.5560835,7.63714903 28.8987761,7.63714903 C29.3491721,7.63714903 29.7163427,7.25039597 29.7163427,6.77062635 C29.7163427,6.51115911 29.6233261,6.29085673 29.3932325,6.00201584 C26.2796256,2.13448524 21.7658747,0 16.6940245,0 C12.1508999,0 7.93578114,1.74773218 4.82217423,4.92008639 C1.71346292,8.087545 0,12.3760979 0,16.9975522 C0,21.6190065 1.70856731,25.936933 4.8074874,29.0946004 C7.9113031,32.2522678 12.1313175,33.9951044 16.6989201,33.9951044 C21.7707703,33.9951044 26.2845212,31.8655148 29.3981281,27.9930886 C29.6282217,27.7042477 29.7212383,27.4839453 29.7212383,27.224478 C29.7212383,26.749604 29.3540677,26.3579554 28.9036717,26.3579554 C28.5609791,26.3579554 28.3357811,26.47545 28.0665227,26.7985601 C25.3151908,30.2891289 21.2763139,32.213103 16.6940245,32.213103 C8.27357811,32.213103 1.92397408,25.6725702 1.92397408,16.9975522 C1.92397408,12.8264939 3.43182145,8.97854572 6.16846652,6.15867531 C8.90511159,3.3388049 12.6453564,1.78200144 16.6891289,1.78200144 Z" id="Path"></path>
            <path d="M60.4362851,32.6390209 L47.237725,0.631533477 C47.125126,0.249676026 46.787329,0.00489560835 46.3809935,0.00489560835 C45.974658,0.00489560835 45.6368611,0.249676026 45.5242621,0.631533477 L32.2767459,32.6390209 C32.1690425,32.9033837 32.1200864,33.0600432 32.1200864,33.2313895 C32.1200864,33.6475162 32.5166307,33.9951044 32.9866091,33.9951044 C33.4027358,33.9951044 33.7307415,33.750324 33.8922966,33.324406 L46.3858891,2.97163427 L58.8305256,33.3195104 C58.9920806,33.7454284 59.3200864,33.9951044 59.7362131,33.9951044 C60.2061915,33.9951044 60.6027358,33.6426206 60.6027358,33.2313895 C60.6027358,33.0649388 60.5537797,32.9082793 60.4460763,32.6390209 L60.4362851,32.6390209 L60.4362851,32.6390209 Z" id="Path"></path>
            <path d="M86.5151908,0.00489560835 C86.0990641,0.00489560835 85.7710583,0.249676026 85.6095032,0.675593952 L73.1648668,31.0773218 L60.6712743,0.680489561 C60.5097192,0.254571634 60.1817135,0.00489560835 59.7655868,0.00489560835 C59.4033117,0.00489560835 58.8990641,0.303527718 58.8990641,0.871418287 C58.8990641,1.03786897 58.9529158,1.19942405 59.0067675,1.36587473 L72.313031,33.437005 C72.4941685,33.7992801 72.7976962,34 73.1648668,34 C73.6299496,34 73.8453564,33.6768898 73.9726422,33.4272138 L87.2789057,1.35608351 C87.3327574,1.19942405 87.3866091,1.03786897 87.3866091,0.871418287 C87.3866091,0.352483801 86.9411087,0.00489560835 86.5200864,0.00489560835 L86.5200864,0.00489560835 L86.5151908,0.00489560835 Z" id="Path"></path>
            <path d="M105.103816,0.00489560835 C100.560691,0.00489560835 96.3455724,1.75262779 93.2319654,4.924982 C90.1232541,8.0924406 88.4097912,12.3809935 88.4097912,17.0024478 C88.4097912,26.5341973 95.7434125,34 105.108711,34 C109.651836,34 113.886537,32.2473722 117.029518,29.0652268 C120.172498,25.8830814 121.905544,21.599424 121.905544,17.0073434 C121.905544,7.47559395 114.527862,0.0097912167 105.108711,0.0097912167 L105.103816,0.0097912167 L105.103816,0.00489560835 Z M119.971778,16.9485961 C119.971778,21.1196544 118.45414,24.9773938 115.697912,27.8168467 C112.941685,30.6514039 109.196544,32.2179986 105.152772,32.2179986 C101.108999,32.2179986 97.3540677,30.6611951 94.6076314,27.8364291 C91.8514039,25.0067675 90.3386609,21.1392369 90.3386609,16.9534917 C90.3386609,12.7677466 91.8514039,8.9687545 94.5929446,6.1537797 C97.3393808,3.3388049 101.094312,1.78689705 105.157667,1.78689705 C109.221022,1.78689705 112.951476,3.3388049 115.702808,6.1537797 C118.459035,8.97365011 119.971778,12.8069114 119.971778,16.9534917 L119.971778,16.9534917 L119.971778,16.9485961 Z" id="Shape" fill-rule="nonzero"></path>
            <path d="M146.853564,2.18344132 C147.073866,2.18344132 147.294168,2.09042477 147.460619,1.92397408 C147.62707,1.7575234 147.720086,1.53722102 147.720086,1.31691865 C147.720086,0.866522678 147.333333,0.499352052 146.853564,0.499352052 L121.837005,0.499352052 C121.362131,0.499352052 120.970482,0.866522678 120.970482,1.31691865 C120.970482,1.76731461 121.376818,2.18344132 121.837005,2.18344132 L133.429806,2.18344132 L133.429806,33.0355652 C133.429806,33.5838733 133.821454,34 134.345284,34 C134.869114,34 135.260763,33.5838733 135.260763,33.0355652 L135.260763,2.18344132 L146.853564,2.18344132 Z" id="Path"></path>
            <path d="M203.221598,16.2142549 C202.702664,16.2142549 202.311015,16.625486 202.311015,17.1737941 L202.311015,25.3984161 C199.691865,29.662491 194.992081,32.213103 189.71951,32.213103 C181.245212,32.213103 174.851548,25.6480922 174.851548,16.9485961 C174.851548,12.7775378 176.359395,8.93938085 179.105832,6.13419726 C181.847372,3.32901368 185.597408,1.78200144 189.670554,1.78200144 C194.110871,1.78200144 197.939237,3.55421166 200.74442,6.89791217 C201.233981,7.48538517 201.415119,7.63714903 201.831246,7.63714903 C202.281641,7.63714903 202.648812,7.25039597 202.648812,6.77062635 C202.648812,6.51115911 202.555796,6.28596112 202.325702,6.00201584 C199.520518,2.24218862 194.771778,0 189.621598,0 C185.078474,0 180.863355,1.74773218 177.749748,4.92008639 C174.641037,8.087545 172.927574,12.3760979 172.927574,16.9975522 C172.927574,21.6190065 174.641037,25.9075594 177.749748,29.075018 C180.863355,32.2473722 185.078474,33.9951044 189.621598,33.9951044 C192.470842,33.9951044 195.276026,33.299928 197.738517,31.9830094 C200.205904,30.6611951 202.276746,28.7470122 203.72095,26.4411807 C204.024478,25.936933 204.137077,25.4767459 204.137077,24.7424046 L204.137077,17.1786897 C204.137077,16.6303816 203.740533,16.2191505 203.221598,16.2191505 L203.221598,16.2191505 L203.221598,16.2142549 Z" id="Path"></path>
            <path d="M171.855436,32.6390209 L158.656875,0.631533477 C158.544276,0.249676026 158.206479,0.00489560835 157.800144,0.00489560835 C157.393808,0.00489560835 157.056012,0.249676026 156.943413,0.631533477 L143.695896,32.6390209 C143.588193,32.9082793 143.539237,33.0600432 143.539237,33.2313895 C143.539237,33.6475162 143.935781,33.9951044 144.40576,33.9951044 C144.821886,33.9951044 145.149892,33.750324 145.311447,33.324406 L157.80504,2.97163427 L170.249676,33.3195104 C170.411231,33.7454284 170.739237,33.9951044 171.155364,33.9951044 C171.625342,33.9951044 172.021886,33.6426206 172.021886,33.2313895 C172.021886,33.0649388 171.97293,32.9082793 171.865227,32.6390209 L171.855436,32.6390209 Z" id="Path"></path>
            <path d="M224.453852,0.00489560835 C219.910727,0.00489560835 215.695608,1.75262779 212.582001,4.924982 C209.47329,8.0924406 207.759827,12.3809935 207.759827,17.0024478 C207.759827,26.5341973 215.093449,34 224.458747,34 C229.001872,34 233.236573,32.2473722 236.379554,29.0652268 C239.522534,25.8830814 241.25558,21.599424 241.25558,17.0073434 C241.25558,7.47559395 233.877898,0.0097912167 224.458747,0.0097912167 L224.453852,0.0097912167 L224.453852,0.00489560835 Z M239.321814,16.9485961 C239.321814,21.1196544 237.804176,24.9773938 235.047948,27.8168467 C232.291721,30.6514039 228.54658,32.2179986 224.502808,32.2179986 C220.459035,32.2179986 216.704104,30.6611951 213.957667,27.8364291 C211.20144,25.0067675 209.683801,21.1392369 209.683801,16.9534917 C209.683801,12.7677466 211.196544,8.9687545 213.938085,6.1537797 C216.684521,3.3388049 220.439453,1.78689705 224.502808,1.78689705 C228.566163,1.78689705 232.296616,3.3388049 235.047948,6.1537797 C237.804176,8.97365011 239.316919,12.8069114 239.316919,16.9534917 L239.321814,16.9534917 L239.321814,16.9485961 Z" id="Shape" fill-rule="nonzero"></path>
            <path d="M261.572354,0.00489560835 C257.02923,0.00489560835 252.814111,1.75262779 249.700504,4.924982 C246.591793,8.0924406 244.87833,12.3809935 244.87833,17.0024478 C244.87833,26.5341973 252.211951,34 261.57725,34 C266.120374,34 270.355076,32.2473722 273.498056,29.0652268 C276.641037,25.8830814 278.374082,21.599424 278.374082,17.0073434 C278.374082,7.47559395 270.9964,0.0097912167 261.57725,0.0097912167 L261.572354,0.0097912167 L261.572354,0.00489560835 Z M276.440317,16.9485961 C276.440317,21.1196544 274.922678,24.9773938 272.166451,27.8168467 C269.410223,30.6514039 265.665083,32.2179986 261.62131,32.2179986 C257.577538,32.2179986 253.822606,30.6611951 251.07617,27.8364291 C248.319942,25.0067675 246.807199,21.1392369 246.807199,16.9534917 C246.807199,12.7677466 248.315047,8.9687545 251.061483,6.1537797 C253.807919,3.3388049 257.562851,1.78689705 261.626206,1.78689705 C265.689561,1.78689705 269.420014,3.3388049 272.171346,6.1537797 C274.927574,8.97365011 276.440317,12.8069114 276.440317,16.9534917 L276.440317,16.9534917 L276.440317,16.9485961 Z" id="Shape" fill-rule="nonzero"></path>
        </g>
    </g>
</svg>