<?xml version="1.0" encoding="UTF-8"?>
<svg width="200px" height="100px" viewBox="0 0 200 100" version="1.1" xmlns="http://www.w3.org/2000/svg" xmlns:xlink="http://www.w3.org/1999/xlink">
    <title>09_amathus</title>
    <g id="09_amathus" stroke="none" fill="none" fill-rule="evenodd" stroke-width="1">
        <g id="logo" transform="translate(63.9877, 5)" fill="#000000">
            <path d="M47.0119543,19.7703215 L47.0119543,10.8149398 L30.6049297,10.8149398 L30.6049297,19.1632831 L9.49358072,57.7160358 C7.79494588,60.8254316 6.12223757,61.4244239 4.69806636,61.4244239 L4.69806636,62.3229123 L27.5795717,62.3229123 L27.5795717,61.4244239 L24.1975003,61.4244239 L47.0119543,19.7703215 Z" id="Path_1"></path>
            <path d="M65.5324381,55.9315752 L65.5324381,26.0114635 L65.5100877,26.0114635 L65.5100877,4.89028031 L30.5405604,4.89028031 L30.5405604,5.78966275 L49.0708785,5.78966275 L49.0708785,7.85305708 L30.5405604,7.85305708 L30.5405604,8.7515455 L49.0708785,8.7515455 L49.0708785,10.8149398 L49.0655144,10.8149398 L49.0655144,61.428 L47.0092722,61.428 L47.0092722,62.3273824 L70.0266683,62.3273824 L70.0266683,61.428 C67.8059268,61.428 65.5333322,59.5255289 65.5333322,55.9306812" id="Path_2"></path>
            <polygon id="Path_3" points="30.5405604 1.92839755 36.7709742 1.92839755 36.7709742 0 30.5405604 0.964645786"></polygon>
            <polygon id="Path_4" points="37.7222097 1.92839755 43.9526235 1.92839755 43.9526235 0 37.7222097 0.964645786"></polygon>
            <polygon id="Path_5" points="44.9101172 1.92839755 51.140531 1.92839755 51.140531 0 44.9101172 0.964645786"></polygon>
            <polygon id="Path_6" points="52.0944485 1.92839755 58.3248623 1.92839755 58.3248623 0 52.0944485 0.964645786"></polygon>
            <polygon id="Path_7" points="59.2796739 1.92839755 65.5100877 1.92839755 65.5100877 0 59.2796739 0.964645786"></polygon>
            <rect id="Rectangle_1" x="30.5405604" y="1.92929157" width="34.9695273" height="1"></rect>
            <g id="Group_1" transform="translate(0, 68.5988)">
                <path d="M5.13613535,0.0046347275 L9.73228362,10.7167624 L9.41043702,10.694412 C9.32103519,10.6899419 9.25398381,10.6845778 9.19676664,10.6792137 C9.13954946,10.6738496 9.05282968,10.6720615 8.93839534,10.6720615 C8.83826528,10.6720615 8.71101667,10.6771276 8.55664951,10.6872598 L8.12215659,10.7167624 C7.60302995,9.21481164 7.06661894,7.83504334 6.51292359,6.57745754 L2.62036775,6.57745754 C2.38196286,7.17644983 2.18229876,7.68067617 2.02137546,8.09013657 C1.86045216,8.49959697 1.69714481,8.93885798 1.53145341,9.4079196 C1.36397398,9.87698122 1.22063304,10.3135602 1.10143059,10.7176565 C1.01202876,10.7078223 0.935143181,10.7006701 0.872561897,10.695306 C0.809980614,10.6899419 0.75812755,10.6854718 0.71521467,10.6801077 C0.654302613,10.6743373 0.593117407,10.6719496 0.531940911,10.6729555 C0.469572215,10.6717755 0.407187075,10.6741635 0.345091078,10.6801077 C0.304860253,10.6854718 0.255689244,10.6899419 0.194895998,10.695306 C0.134102751,10.7006701 0.0697334303,10.7078223 0,10.7176565 L4.78389212,0.0046347275 L5.13613535,0.0046347275 Z M6.28226686,5.93376434 L4.58363202,2.01081188 L2.91449978,5.93376434 L6.28226686,5.93376434 Z" id="Path_8" fill-rule="nonzero"></path>
                <path d="M21.2767424,0.226351275 L21.598589,0.226351275 C21.693355,1.08520489 21.793187,1.98875942 21.8980852,2.93701487 C22.0029833,3.88527032 22.1102655,4.82965169 22.2199318,5.77015898 C22.329598,6.71126229 22.4243639,7.50127649 22.5042296,8.1402016 C22.5840952,8.7791267 22.6964435,9.63738431 22.8412745,10.7149744 L22.5453544,10.692624 C22.4675748,10.6881539 22.4032055,10.6827897 22.3504584,10.6774256 C22.2977114,10.6720615 22.2217198,10.6693795 22.1224838,10.6693795 C22.0232477,10.6693795 21.9302698,10.6693795 21.8757347,10.6774256 C21.8211996,10.6854718 21.7532542,10.6872598 21.6736866,10.692624 C21.5941189,10.6979881 21.5038231,10.7051402 21.4054811,10.7149744 C21.3405157,9.89724564 21.2681002,9.05776242 21.1882346,8.19652475 C21.108369,7.33528709 21.0422116,6.64391291 20.9897625,6.12240221 C20.9373134,5.60089151 20.8762222,5.00487929 20.8064888,4.33436554 C20.7367553,3.66385178 20.6741741,3.15366532 20.6187449,2.80380614 C19.9601514,3.9767582 19.3998999,4.99206503 18.9379904,5.84972662 C18.476081,6.70738821 18.039204,7.55223554 17.6273596,8.3842686 C17.2155151,9.21510964 16.8751921,9.93747646 16.6063906,10.5513691 L16.4338451,10.5513691 L15.5952559,8.81429142 C15.2906936,8.18490251 14.9527547,7.51111069 14.5814391,6.79291596 C14.2101235,6.07472123 13.8569862,5.39586331 13.5220274,4.75634219 C13.1876645,4.11741709 12.8458515,3.46627373 12.4965883,2.80291212 C12.4018224,3.64626942 12.3145066,4.40231093 12.2346409,5.07103665 C12.1547753,5.73976236 12.0710356,6.50086997 11.9834218,7.35435948 C11.896404,8.20725297 11.8353128,8.88938896 11.800148,9.40076745 C11.7649833,9.91214594 11.747699,10.3499169 11.748295,10.7140804 C11.6588931,10.7042462 11.5829016,10.697094 11.5238964,10.6917299 C11.4648912,10.6863658 11.4148261,10.6818957 11.3772774,10.6765316 C11.3211717,10.6703977 11.2647426,10.6677106 11.2083079,10.6684855 C11.1444361,10.6677101 11.0805692,10.6703961 11.016988,10.6765316 C10.9749691,10.6818957 10.9275861,10.6863658 10.8632168,10.6917299 C10.7988475,10.697094 10.7335842,10.7042462 10.6540165,10.7140804 C10.7636828,10.0554869 10.9424864,8.87895875 11.1904275,7.18449599 C11.4383686,5.49003324 11.6442908,4.03635942 11.8081942,2.82347455 C11.9726936,1.61058967 12.0799758,0.744583905 12.1300408,0.225457257 L12.5269849,0.225457257 C13.0705481,1.29827926 13.4421617,2.02958626 13.6418258,2.41937826 C13.8414899,2.80917025 14.1523103,3.40071238 14.5742869,4.19400466 C14.9962636,4.98789294 15.3967838,5.71770991 15.7758476,6.38345556 C16.1549114,7.04920122 16.5193728,7.67501406 16.869232,8.26089407 C17.113597,7.82163306 17.5266335,7.06916763 18.1083414,6.00349777 L19.2875516,3.84354947 C19.4925798,3.4698498 19.7485671,3.00078818 20.0555134,2.43636461 C20.3624597,1.87194103 20.769536,1.13526992 21.2767424,0.226351275 Z" id="Path_9"></path>
                <path d="M28.9939087,0.0046347275 L33.590057,10.7167624 L33.2682104,10.694412 C33.1788085,10.6899419 33.1117572,10.6845778 33.05454,10.6792137 C32.9973228,10.6738496 32.910603,10.6720615 32.7961687,10.6720615 C32.6960386,10.6720615 32.56879,10.6771276 32.4144229,10.6872598 L31.9799299,10.7167624 C31.4608033,9.21481164 30.9243923,7.83504334 30.3706969,6.57745754 L26.4772471,6.57745754 C26.2388422,7.17644983 26.0391781,7.68067617 25.8782548,8.09013657 C25.7173315,8.49959697 25.5540241,8.93885798 25.3883327,9.4079196 C25.2208533,9.87698122 25.0772144,10.3135602 24.9574159,10.7176565 C24.8680141,10.7078223 24.7911285,10.7006701 24.7285472,10.695306 C24.6659659,10.6899419 24.6141129,10.6854718 24.5712,10.6801077 C24.5102878,10.6743392 24.4491027,10.6719515 24.3879262,10.6729555 C24.3255575,10.6717736 24.2631723,10.6741615 24.2010764,10.6801077 C24.1608456,10.6854718 24.1116746,10.6899419 24.0508813,10.695306 C23.9900881,10.7006701 23.9257187,10.7078223 23.8559853,10.7176565 L28.6398774,0.00552874583 L28.9939087,0.0046347275 Z M30.1391462,5.93376434 L28.4405113,2.01081188 L26.7713791,5.93376434 L30.1391462,5.93376434 Z" id="Path_10" fill-rule="nonzero"></path>
                <path d="M37.734726,0.975538642 L37.734726,10.742689 C37.6238677,10.7328548 37.5308898,10.7257026 37.4557923,10.7203385 L37.2716245,10.7051402 C37.2242415,10.6997761 37.15272,10.697094 37.0570601,10.697094 C36.9765984,10.697094 36.8711043,10.7024582 36.7405776,10.7113983 L36.371348,10.741795 L36.371348,0.975538642 C35.2538835,0.977828316 34.1372739,1.03750814 33.0259314,1.15434231 C33.0357656,1.07924477 33.0455998,0.994313027 33.055434,0.90133512 C33.0652682,0.808357213 33.0706323,0.738623782 33.0706323,0.693922866 C33.0715592,0.642243274 33.0688706,0.590562131 33.0625862,0.539257693 C33.057222,0.506179015 33.0527519,0.46594819 33.0473878,0.417671199 C33.0420237,0.369394209 33.0348716,0.305918907 33.0250374,0.225457257 L40.9379937,0.225457257 C40.9272655,0.336315531 40.9174313,0.430187456 40.9075971,0.505284996 C40.8986762,0.567794105 40.8936006,0.630791843 40.8923987,0.693922866 C40.8939312,0.757037003 40.8990053,0.820015361 40.9075971,0.882560735 C40.9174313,0.963916403 40.9272655,1.05331824 40.9379937,1.15076624 C40.5082689,1.10070121 40.0141747,1.05838434 39.4557113,1.02381563 C38.8972478,0.989246923 38.3235861,0.973154593 37.734726,0.975538642 Z" id="Path_11"></path>
                <path d="M50.4315744,4.62849757 L50.4315744,0.226351275 C50.5808755,0.237079495 50.7105081,0.246913697 50.8204724,0.256747899 C50.9304366,0.2665821 51.0260966,0.27194621 51.1056642,0.27194621 C51.1852319,0.27194621 51.2719516,0.2665821 51.3783398,0.256747899 C51.484728,0.246913697 51.6197248,0.237079495 51.77886,0.226351275 L51.77886,10.7140804 L51.5061845,10.6917299 C51.433769,10.6872598 51.3729757,10.6818957 51.3273808,10.6765316 C51.2817858,10.6711675 51.2049003,10.6684855 51.1101343,10.6684855 C51.0153684,10.6684855 50.9313307,10.6684855 50.8785836,10.6765316 C50.8258365,10.6845778 50.7641492,10.6863658 50.6872637,10.6917299 C50.6103781,10.697094 50.5254463,10.7042462 50.4369385,10.7140804 L50.4369385,5.44384229 C50.1985336,5.43907419 49.8409263,5.42774996 49.3641165,5.4098696 C48.8873067,5.39198923 48.4700982,5.37947297 48.1124908,5.37232082 C47.7548835,5.36457267 47.4568774,5.36069859 47.2184725,5.36069859 C46.9800676,5.36069859 46.6820615,5.36457267 46.3244542,5.37232082 C45.9626747,5.37947297 45.5436782,5.39198923 45.0674644,5.4098696 C44.5912506,5.42774996 44.2306632,5.43907419 43.9857022,5.44384229 L43.9857022,10.7140804 C43.8748439,10.7042462 43.781866,10.697094 43.7067685,10.6917299 C43.6316709,10.6863658 43.5681956,10.6818957 43.5181306,10.6765316 C43.4680656,10.6711675 43.3947561,10.6684855 43.2999901,10.6684855 C43.2239986,10.6684855 43.1211865,10.6738496 42.9906598,10.6836838 L42.6223242,10.7131864 L42.6223242,0.226351275 C42.7725193,0.237079495 42.90394,0.246913697 43.0174803,0.256747899 C43.1310207,0.2665821 43.2239986,0.27194621 43.2999901,0.27194621 C43.3759817,0.27194621 43.4618075,0.2665821 43.5744538,0.256747899 C43.6871001,0.246913697 43.8238849,0.237079495 43.9848082,0.226351275 L43.9848082,4.62849757 C45.8205258,4.67915861 46.8984139,4.70419112 47.2184725,4.70359511 C47.5385311,4.7029991 48.609565,4.67796658 50.4315744,4.62849757 Z" id="Path_12"></path>
                <path d="M55.9637599,0.226351275 L55.9637599,6.10273381 C55.9557563,6.70303861 56.0121031,7.30247284 56.1318353,7.89077048 C56.22304,8.35267437 56.4130387,8.7893971 56.6888088,9.17100474 C56.956291,9.52200886 57.3181664,9.78961678 57.7321282,9.94254257 C58.2483051,10.1257163 58.7938453,10.2120935 59.3413612,10.1973378 C60.3214617,10.2813375 61.2759798,9.85590676 61.868751,9.07087469 C62.443549,8.13234882 62.7177457,7.04055313 62.6545931,5.94181051 L62.6545931,0.220093147 C62.743995,0.230821367 62.8253506,0.240655569 62.8959781,0.25048977 C62.9584484,0.259753808 63.0214682,0.264831233 63.0846159,0.265688082 C63.1414937,0.264085139 63.1982205,0.259009585 63.2544794,0.25048977 C63.3277889,0.240655569 63.4154027,0.230821367 63.5155328,0.220093147 L63.5155328,6.3217683 C63.5423255,7.19129963 63.354728,8.05406353 62.9692876,8.83395983 C62.6243842,9.50048097 62.0781953,10.0413519 61.4083316,10.3797175 C60.6708734,10.7376208 59.8586841,10.9144635 59.039183,10.8955661 C58.5822329,10.9004015 58.1259037,10.8605775 57.676699,10.7766617 C57.3033319,10.7046606 56.9409027,10.5844519 56.5985129,10.4190543 C56.277344,10.2605082 55.9800145,10.0576741 55.7152228,9.81648598 C55.2813199,9.43116523 54.976911,8.9213194 54.8435549,8.35655403 C54.6920281,7.70129479 54.6152487,7.03097396 54.6146862,6.35842305 L54.6146862,0.219199128 C54.7648813,0.229927349 54.8945139,0.23976155 55.0044782,0.249595752 C55.1144425,0.259429954 55.2092084,0.264794064 55.2896701,0.264794064 C55.3540394,0.264794064 55.4425472,0.259429954 55.5578756,0.249595752 C55.6732039,0.23976155 55.8037306,0.237079495 55.9637599,0.226351275 Z" id="Path_13"></path>
                <path d="M66.0760013,8.64800401 L66.2333485,8.64800401 C66.5042869,9.11720765 66.8695859,9.52512485 67.3061705,9.84598858 C67.7230204,10.1202808 68.2146328,10.2586444 68.7133554,10.2420387 C69.0991437,10.2473907 69.4784511,10.1425617 69.8067398,9.93986051 C70.1293451,9.7390214 70.3928232,9.45610639 70.5702315,9.12004569 C70.7544329,8.77747275 70.8497248,8.39415324 70.8473772,8.00520483 C70.8923067,7.47446691 70.6737597,6.95550133 70.2626892,6.61679435 C69.7111183,6.24012083 69.1135073,5.93575685 68.4844867,5.71115377 C67.8222822,5.47700205 67.2075563,5.12573009 66.6696295,4.6740925 C66.2226234,4.21422558 65.9946971,3.5844977 66.0438166,2.94506104 C65.9969612,2.10587804 66.3561865,1.29529262 67.0093564,0.766338351 C67.7108372,0.238608327 68.5728576,-0.0310493364 69.4500265,0.00284669082 C69.8551065,0.00361933848 70.2577596,0.0654036722 70.644435,0.18612045 C71.0122117,0.292151452 71.3511857,0.480130699 71.6359013,0.735941727 C71.5560357,0.914745395 71.4189529,1.33404 71.2246529,1.99382553 L71.0735638,1.99382553 C70.9348079,1.60058975 70.6785851,1.25947941 70.3395747,1.01666349 C69.997929,0.776421133 69.5886764,0.651171673 69.1710928,0.65905615 C68.8336028,0.655182335 68.5000854,0.732124306 68.1984008,0.883454753 C67.911498,1.02594095 67.6693232,1.24460962 67.4983845,1.51552572 C67.3241572,1.79493351 67.2344306,2.11875639 67.2400132,2.44798684 C67.1968052,2.97217853 67.4116328,3.48456232 67.815761,3.82119901 C68.3728361,4.20385186 68.9767742,4.51333255 69.6127378,4.7420379 C70.2777965,4.97954217 70.8986836,5.32609086 71.4499455,5.76747693 C71.8883215,6.19421608 72.1146266,6.7935478 72.0677122,7.40353049 C72.0752853,7.90391895 71.9768731,8.40024506 71.7789443,8.85988636 C71.5921627,9.28471857 71.3137318,9.66298164 70.9635995,9.96757508 C70.6096605,10.2758942 70.1991346,10.5124324 69.7548868,10.6640154 C69.2797516,10.824195 68.781145,10.9036699 68.2797565,10.8991422 C67.8122577,10.8889805 67.349104,10.8069637 66.9065443,10.6559692 C66.4811657,10.5418244 66.0929045,10.3187283 65.7800812,10.0086999 C65.9255791,9.56660704 66.0247515,9.11059371 66.0760013,8.64800401 Z" id="Path_14"></path>
            </g>
            <g id="Group_2" transform="translate(1.3714, 81.8862)">
                <path d="M0,7.97246626 L0,0.171262251 L2.41921362,0.171262251 C3.08886713,0.12125224 3.75826268,0.271562816 4.34224706,0.603073108 C4.75786979,0.903471426 4.98959839,1.39665475 4.95554364,1.90833988 C4.96085091,2.20077518 4.89585103,2.49020859 4.76601176,2.75229319 C4.63846579,3.00150395 4.45816446,3.21994007 4.23764692,3.39241032 C4.01154206,3.57248194 3.75996696,3.71800382 3.49114161,3.82422118 C3.20838346,3.93547913 2.91558763,4.01930616 2.61679167,4.07454631 L4.96984794,7.04447523 L5.52145725,7.68459236 L5.73244558,7.96799617 C5.62873945,7.96084402 5.54023164,7.95547991 5.46424008,7.95190384 C5.38824852,7.94832777 5.33281938,7.94475169 5.28543641,7.9402816 C5.23805344,7.93581151 5.16742599,7.93491749 5.07087201,7.93491749 C4.97431803,7.93491749 4.91173675,7.93491749 4.88402218,7.93491749 L4.69717234,7.94564571 C4.60061836,7.95100982 4.50853448,7.95816197 4.41913264,7.96531412 C4.07046549,7.47539207 3.8320606,7.14520129 3.70391797,6.9747418 L2.35573832,5.23140604 L1.4429456,4.15858404 L1.01381679,4.15858404 L1.01381679,7.96710215 L0.80640454,7.95100982 C0.750081385,7.95100982 0.703592431,7.94385768 0.666043661,7.93938758 C0.628494891,7.93491749 0.576641828,7.93402347 0.504226342,7.93402347 C0.448201193,7.93402347 0.371613622,7.93759955 0.27446363,7.94475169 L0,7.97246626 Z M1.01292278,0.594132925 L1.01292278,3.72945523 C1.0871263,3.72945523 1.16669393,3.72945523 1.25251969,3.72945523 L1.54754574,3.7375014 C1.86090932,3.74223503 2.17409359,3.71980063 2.48358294,3.67045002 C2.88502752,3.59524855 3.25345789,3.39791975 3.53852458,3.10543043 C3.80923186,2.81750156 3.95457382,2.43388884 3.94262087,2.03886656 C3.97339996,1.68095611 3.8575282,1.32588845 3.62155789,1.05502824 C3.38558757,0.784168028 3.04974711,0.620734583 2.6909952,0.60217909 C2.45642153,0.573562399 2.2200633,0.562207641 1.98382669,0.568206393 C1.80949311,0.568206393 1.64856981,0.57535854 1.50284483,0.577146576 C1.35711984,0.578934613 1.19172644,0.586980778 1.01292278,0.594132925 L1.01292278,0.594132925 Z" id="Path_15" fill-rule="nonzero"></path>
                <path d="M8.85167556,0.716613437 L8.85167556,3.57747212 L10.6227259,3.57747212 C10.6933533,3.57747212 10.7952714,3.57210801 10.9284802,3.56316782 L11.2708892,3.53813531 C11.3656551,3.53098316 11.4872416,3.522937 11.6356487,3.51578485 C11.6276025,3.58283623 11.6204503,3.64094742 11.6132982,3.68833039 C11.6060855,3.73087618 11.6021997,3.77391938 11.601676,3.81706903 C11.6032525,3.8563018 11.6071332,3.89540801 11.6132982,3.93418543 C11.6204503,3.98961457 11.6276025,4.05666595 11.6356487,4.13444554 C11.4872416,4.12729339 11.3656551,4.11984324 11.2708892,4.11209508 C11.1761232,4.10494294 11.0616889,4.09689677 10.9284802,4.08974462 C10.7952714,4.08259248 10.6924593,4.07812239 10.6227259,4.07812239 L8.85167556,4.07812239 L8.85167556,7.40208256 C9.31537307,7.40208256 10.0040652,7.38718226 10.9177519,7.35738165 C11.2702696,7.34232825 11.6216148,7.30680566 11.9700115,7.25099346 C11.9700115,7.28139009 11.9610713,7.32072689 11.9530252,7.37168594 C11.944979,7.42264499 11.9405089,7.46108777 11.9396149,7.4914844 C11.9387209,7.52188102 11.9351448,7.55585372 11.9315687,7.59697856 C11.9314744,7.65297808 11.9359594,7.70889154 11.944979,7.76415999 C11.9539192,7.8231652 11.9619654,7.88127639 11.9700115,7.93670553 L7.849481,7.93670553 L7.849481,0.168580196 L11.897596,0.168580196 C11.8895499,0.250829883 11.8823977,0.320563313 11.8752456,0.376886469 C11.8685376,0.423395456 11.8646564,0.470268458 11.8636233,0.517247348 C11.8649244,0.564211824 11.8688043,0.611069375 11.8752456,0.657608227 C11.8823977,0.717507455 11.8904439,0.785452849 11.897596,0.859656371 C11.5589811,0.797426761 11.2167929,0.756519447 10.873051,0.737175859 L9.7313896,0.7148254 L8.85167556,0.716613437 Z" id="Path_16"></path>
                <path d="M14.1692966,6.43654276 L14.285519,6.43654276 C14.4865356,6.78630202 14.7577436,7.09068807 15.0820894,7.3305611 C15.3923463,7.53436534 15.7579646,7.63740039 16.1289848,7.62558715 C16.4157648,7.62914279 16.6976333,7.55100103 16.9416475,7.40029453 C17.1817024,7.25072595 17.3776387,7.03997874 17.5093491,6.78968 C17.6463759,6.53470974 17.7173746,6.24948546 17.7158674,5.96003099 C17.7490717,5.56541828 17.5867255,5.17959544 17.2813745,4.92743981 C16.8712501,4.64737823 16.4268664,4.42113015 15.9591213,4.254244 C15.4662077,4.08015901 15.0086328,3.8188174 14.6082596,3.48270617 C14.2767404,3.14042069 14.1083767,2.67212878 14.1460522,2.1971078 C14.1104816,1.57334417 14.3765246,0.970424264 14.8612668,0.576252558 C15.3829211,0.183918923 16.0238838,-0.0165792563 16.676124,0.0085509137 C16.9774701,0.0091643443 17.2770201,0.054970773 17.5647783,0.144441701 C17.8383552,0.223585854 18.0904967,0.363562576 18.3023434,0.553902099 C18.2427422,0.687408838 18.1408241,0.999123231 17.9965891,1.48904528 L17.8857309,1.48904528 C17.7820828,1.1967026 17.5914693,0.943071298 17.3394857,0.762208372 C17.0856006,0.582905041 16.7812763,0.488977795 16.4704998,0.494002871 C16.2193236,0.491036066 15.9710647,0.548043664 15.746345,0.660290282 C15.5332007,0.766562132 15.353247,0.92920075 15.2260263,1.13054393 C15.096214,1.338343 15.0294464,1.57932741 15.0338124,1.82430216 C15.0015306,2.2145421 15.1617149,2.59598105 15.4629412,2.84616512 C15.8774434,3.13048419 16.3266063,3.36062382 16.7994986,3.53098316 C17.2945397,3.70706158 17.7565856,3.96482818 18.1664526,4.2935808 C18.4924837,4.6109558 18.6608165,5.05667749 18.625978,5.51033976 C18.6317515,5.88233133 18.5586235,6.25132315 18.4114136,6.59299597 C18.2723435,6.9091692 18.0650434,7.19065762 17.8043752,7.41728088 C17.5409908,7.64652469 17.2355219,7.82233634 16.9049927,7.93491749 C16.5519492,8.05559542 16.1811241,8.11603961 15.8080322,8.11378541 C15.4602195,8.10726839 15.1155077,8.04695136 14.7861693,7.93491749 C14.4697661,7.85039753 14.1809756,7.68458186 13.9484741,7.45393563 C14.0565126,7.12320314 14.1305037,6.78230482 14.1692966,6.43654276 Z" id="Path_17"></path>
                <path d="M21.1283354,7.97246626 L21.1283354,0.171262251 C21.2400877,0.179308416 21.3357476,0.186460563 21.4179973,0.19361271 C21.500247,0.200764856 21.5699804,0.20434093 21.6298797,0.20434093 C21.6897789,0.20434093 21.744314,0.20434093 21.8274577,0.19361271 C21.9106014,0.182884489 22.0116255,0.179308416 22.1314239,0.171262251 L22.1314239,7.97246626 L21.9249057,7.95637393 C21.8694766,7.95637393 21.8238816,7.94922179 21.7881209,7.94475169 C21.7523602,7.9402816 21.6987191,7.93938758 21.6298797,7.93938758 C21.5610402,7.93938758 21.4939889,7.93938758 21.4573341,7.94475169 C21.4206794,7.9501158 21.3724024,7.95190384 21.3151852,7.95637393 C21.257968,7.96084402 21.1953867,7.96531412 21.1283354,7.97246626 Z" id="Path_18"></path>
                <path d="M25.253336,7.93849357 L25.253336,0.170368233 L28.6273612,0.170368233 C29.1005125,0.163338259 29.5730043,0.208308923 30.0363341,0.304470983 C30.4418212,0.399704524 30.819353,0.588623549 31.1386587,0.856080297 C31.5437089,1.18682224 31.8581029,1.6150379 32.0523454,2.10055382 C32.2588437,2.61171314 32.3627354,3.15851206 32.3580997,3.70978683 C32.3619278,4.1762156 32.301766,4.64096566 32.179296,5.09104516 C32.0731792,5.48335768 31.9060433,5.85654748 31.6840099,6.19694584 C31.4678283,6.52108619 31.2105978,6.81587951 30.9187302,7.07397783 C30.6941602,7.27333861 30.4395039,7.43596864 30.1641787,7.55585372 C29.8961645,7.67401857 29.6157907,7.761879 29.3282716,7.81780109 C29.0534545,7.87074309 28.7753799,7.90509172 28.4959405,7.9206132 C28.2211788,7.9355135 27.8796638,7.94296366 27.4713955,7.94296366 L25.253336,7.93849357 Z M26.2555305,0.627211603 L26.2555305,7.42622106 C26.3449324,7.43039314 26.4849952,7.43903532 26.6757191,7.45214759 C26.8664431,7.46525986 27.056869,7.47539207 27.2469969,7.48254421 C27.4359327,7.49029237 27.5882139,7.49416645 27.7038402,7.49416645 C28.3522547,7.52492537 28.9992399,7.40879199 29.5964771,7.15443948 C30.1505943,6.88420453 30.593191,6.42927839 30.8481027,5.8679471 C31.1189538,5.24083405 31.2510075,4.56257167 31.2352127,3.87965031 C31.2472159,3.35982269 31.182447,2.8410689 31.0429987,2.34015074 C30.9321886,1.95411883 30.7197659,1.60491824 30.4279141,1.329016 C30.113465,1.05247237 29.7358259,0.857512385 29.3282716,0.761314354 C28.7914892,0.632613229 28.2405474,0.572532339 27.6886419,0.582510686 C27.4585812,0.582510686 27.204382,0.589066821 26.9260443,0.60217909 C26.6515807,0.615589365 26.426288,0.624529548 26.2555305,0.627211603 Z" id="Path_19" fill-rule="nonzero"></path>
                <path d="M35.8876841,0.716613437 L35.8876841,3.57747212 L37.6578404,3.57747212 C37.7284679,3.57747212 37.83128,3.57210801 37.9635947,3.56316782 L38.3060037,3.53813531 C38.4016637,3.53098316 38.5232502,3.522937 38.6716572,3.51578485 C38.663611,3.58283623 38.6564589,3.64094742 38.6502008,3.68833039 C38.642482,3.73082418 38.6382956,3.77388422 38.6376845,3.81706903 C38.639447,3.85632786 38.643627,3.89544078 38.6502008,3.93418543 C38.6573529,3.98961457 38.663611,4.05666595 38.6716572,4.13444554 C38.5232502,4.12729339 38.4034517,4.12014125 38.3060037,4.11209508 C38.2085557,4.10404892 38.0985914,4.09689677 37.9635947,4.08974462 C37.8285979,4.08259248 37.7275738,4.07812239 37.6578404,4.07812239 L35.8876841,4.07812239 L35.8876841,7.40208256 C36.3513816,7.40208256 37.0400737,7.38718226 37.9537605,7.35738165 C38.3062765,7.34230617 38.6576205,7.30678371 39.0060201,7.25099346 L38.9890337,7.37168594 C38.9818816,7.42175097 38.9774115,7.46108777 38.9756234,7.4914844 C38.9738354,7.52188102 38.9702593,7.55585372 38.9675773,7.59697856 C38.9675067,7.65297714 38.9719916,7.70888867 38.9809875,7.76415999 C38.9899277,7.8231652 38.9979739,7.88127639 39.0060201,7.93670553 L34.8854895,7.93670553 L34.8854895,0.168580196 L38.9336046,0.168580196 C38.9264524,0.250829883 38.9184063,0.320563313 38.9112541,0.376886469 C38.9037996,0.423322522 38.8996173,0.470224983 38.8987379,0.517247348 C38.8999121,0.564253368 38.9040927,0.611136099 38.9112541,0.657608227 C38.9175122,0.717507455 38.9264524,0.785452849 38.9336046,0.859656371 C38.5949819,0.797477824 38.2527969,0.756570895 37.9090596,0.737175859 L36.7682922,0.7148254 L35.8876841,0.716613437 Z" id="Path_20"></path>
                <path d="M48.2313953,0.171262251 L48.2313953,7.97246626 L47.8863042,7.97246626 C47.7337251,7.77220616 47.537041,7.5403574 47.2962521,7.27692 L42.368423,1.82340814 L42.2513066,1.82340814 L42.2513066,7.97067823 L42.0796551,7.94832777 C42.0304228,7.94200791 41.9808775,7.93842632 41.9312481,7.93759955 C41.8948114,7.93688765 41.8583688,7.93867991 41.8221778,7.94296366 C41.7980393,7.94296366 41.7676427,7.9501158 41.732776,7.9545859 C41.6979093,7.95905599 41.6567844,7.96352608 41.6111895,7.97067823 L41.6111895,0.169474214 L42.0581987,0.169474214 L47.4723737,6.04406871 L47.5894901,6.04406871 L47.5894901,0.169474214 C47.6565415,0.177520379 47.7155467,0.184672526 47.7682938,0.191824673 C47.8144661,0.198733936 47.8610748,0.202319226 47.9077606,0.202552893 C47.9523623,0.20215214 47.9968784,0.198566949 48.0409694,0.191824673 C48.0946105,0.185566544 48.1571918,0.179308416 48.2313953,0.171262251 Z" id="Path_21"></path>
                <path d="M57.2717087,6.74229703 L57.2100214,7.4575117 C56.9762069,7.61479055 56.7224503,7.74016555 56.45547,7.83031735 C56.1762084,7.92596387 55.88899,7.99657173 55.5972124,8.04130567 C55.2977493,8.08641048 54.9953063,8.10882473 54.6924658,8.10835705 C54.1234134,8.11530637 53.5577448,8.01991792 53.0224396,7.82674127 C52.5416405,7.65272704 52.1066387,7.37179474 51.7502515,7.00513842 C51.396063,6.63386426 51.1245757,6.19174528 50.9536811,5.70791781 C50.7643127,5.16777078 50.6711158,4.59860426 50.6783235,4.02626932 C50.658939,3.26733279 50.8541676,2.51833694 51.241555,1.865427 C51.6104584,1.26195592 52.1473243,0.779149446 52.7864187,0.476122504 C53.470951,0.152399184 54.2205153,-0.0102969437 54.9776577,0.000504748667 C55.2516556,0.00152298328 55.5252648,0.0212371794 55.7965785,0.0595099589 C56.0837081,0.0980745853 56.3675894,0.157839076 56.6458959,0.238313626 C56.9128807,0.316052537 57.1742442,0.411935618 57.4281619,0.525293513 C57.3210708,0.808284013 57.2408514,1.1007255 57.188565,1.39874943 L57.1107854,1.41573578 C56.9820087,1.2706509 56.8381555,1.13968456 56.6816566,1.02504976 C56.4514016,0.856351963 56.1997731,0.718963396 55.9333633,0.616483383 C55.6155501,0.489667809 55.2760138,0.426194569 54.9338508,0.429633551 C54.3255753,0.412008498 53.7268989,0.584174825 53.2209116,0.922237654 C52.7450566,1.25370504 52.3747695,1.71524484 52.1543477,2.25164292 C51.9131234,2.82665616 51.7914516,3.44474873 51.7967404,4.06828818 C51.7837648,4.71748828 51.9150657,5.36147347 52.1811683,5.95377286 C52.6445536,7.00783049 53.6977958,7.67846053 54.848919,7.6524077 C55.2107345,7.65523831 55.5704265,7.5969017 55.9128008,7.47986216 C56.2031495,7.38287551 56.4822036,7.25488831 56.7451319,7.09811633 C56.9288436,6.99209973 57.1048101,6.87319537 57.2717087,6.74229703 L57.2717087,6.74229703 Z" id="Path_22"></path>
                <path d="M60.7691084,0.716613437 L60.7691084,3.57747212 L62.5392648,3.57747212 C62.6098922,3.57747212 62.7118103,3.57210801 62.845913,3.56316782 L63.1883221,3.53813531 C63.283088,3.53098316 63.4046745,3.522937 63.5539756,3.51578485 C63.5459294,3.58283623 63.5387773,3.64094742 63.5316251,3.68833039 C63.5244516,3.73088124 63.520566,3.77392141 63.5200029,3.81706903 C63.5216664,3.85629568 63.5255467,3.89539689 63.5316251,3.93418543 C63.5387773,3.98961457 63.5459294,4.05666595 63.5539756,4.13444554 C63.4049725,4.12729339 63.283088,4.11984324 63.1883221,4.11209508 C63.0935561,4.10494294 62.9800158,4.09689677 62.845913,4.08974462 C62.7118103,4.08259248 62.6098922,4.07812239 62.5392648,4.07812239 L60.7691084,4.07812239 L60.7691084,7.40208256 C61.233402,7.40208256 61.9220941,7.38718226 62.8351848,7.35738165 C63.1877024,7.34232825 63.5390477,7.30680566 63.8874444,7.25099346 C63.8874444,7.28139009 63.8776102,7.32072689 63.8713521,7.37168594 C63.8650939,7.42264499 63.8588358,7.46108777 63.8570478,7.4914844 C63.8552597,7.52188102 63.8525777,7.55585372 63.8490016,7.59697856 C63.8491777,7.65296715 63.853661,7.70885922 63.8624119,7.76415999 C63.8713521,7.8231652 63.8793982,7.88127639 63.8874444,7.93670553 L59.7669139,7.93670553 L59.7669139,0.168580196 L63.8150289,0.168580196 C63.8078768,0.250829883 63.7998306,0.320563313 63.7926785,0.376886469 C63.7859705,0.423395456 63.7820893,0.470268458 63.7810562,0.517247348 C63.7823608,0.564211626 63.7862408,0.61106898 63.7926785,0.657608227 C63.8007246,0.717507455 63.8078768,0.785452849 63.8150289,0.859656371 C63.4764139,0.797426761 63.1342258,0.756519447 62.7904839,0.737175859 L61.6479285,0.7148254 L60.7691084,0.716613437 Z" id="Path_23"></path>
                <path d="M66.0858355,6.43654276 L66.2029519,6.43654276 C66.4039685,6.78630202 66.6751765,7.09068807 66.9995222,7.3305611 C67.3098037,7.53431172 67.6754046,7.63734188 68.0464177,7.62558715 C68.3334815,7.62916478 68.6156429,7.55102778 68.8599744,7.40029453 C69.0999192,7.25059247 69.2958244,7.03987865 69.427676,6.78968 C69.564392,6.53462838 69.6350822,6.24940861 69.6333003,5.96003099 C69.6665046,5.56541828 69.5041584,5.17959544 69.1988073,4.92743981 C68.7886327,4.64746314 68.3442603,4.4212208 67.8765542,4.254244 C67.3839153,4.08015101 66.9266354,3.81880493 66.5265865,3.48270617 C66.1948657,3.14054636 66.0264682,2.67216025 66.0643791,2.1971078 C66.0288086,1.57334417 66.2948515,0.970424264 66.7795937,0.576252558 C67.3011802,0.183786773 67.9421911,-0.0167264891 68.594451,0.0085509137 C68.895797,0.0091643443 69.195347,0.054970773 69.4831052,0.144441701 C69.7566702,0.223614527 70.0088056,0.363587863 70.2206703,0.553902099 C70.1610691,0.687408838 70.059151,0.999123231 69.914916,1.48904528 L69.8031637,1.48904528 C69.6997555,1.19682123 69.5094646,0.94320398 69.2578126,0.762208372 C69.0041478,0.583142447 68.7001843,0.489229931 68.3897208,0.494002871 C68.1385372,0.49096702 67.8902622,0.547978303 67.6655659,0.660290282 C67.4524217,0.766562132 67.2724679,0.92920075 67.1452472,1.13054393 C67.0154349,1.338343 66.9486673,1.57932741 66.9530333,1.82430216 C66.9213672,2.21444406 67.0814369,2.5956101 67.3821621,2.84616512 C67.7981609,3.13065346 68.2488232,3.36079166 68.7231896,3.53098316 C69.2181472,3.70724593 69.6801636,3.96499609 70.0901436,4.2935808 C70.4156348,4.61125623 70.5835932,5.0568534 70.548775,5.51033976 C70.5545485,5.88233133 70.4814205,6.25132315 70.3342106,6.59299597 C70.1951405,6.9091692 69.9878404,7.19065762 69.7271722,7.41728088 C69.4637613,7.64648744 69.1583,7.82229468 68.8277897,7.93491749 C68.4747628,8.05566161 68.1039264,8.11610764 67.7308292,8.11378916 C67.3830192,8.10723964 67.0383118,8.04692339 66.7089663,7.93491749 C66.3925631,7.85039753 66.1037726,7.68458186 65.8712711,7.45393563 C65.9774279,7.12304288 66.0493264,6.78212396 66.0858355,6.43654276 L66.0858355,6.43654276 Z" id="Path_24"></path>
            </g>
        </g>
    </g>
</svg>