<?xml version="1.0" encoding="UTF-8"?>
<svg width="200px" height="100px" viewBox="0 0 200 100" version="1.1" xmlns="http://www.w3.org/2000/svg" xmlns:xlink="http://www.w3.org/1999/xlink">
    <title>10_grace</title>
    <g id="10_grace" stroke="none" fill="none" fill-rule="evenodd" stroke-width="1">
        <g id="Group" transform="translate(54.03, 5)" fill="#000000">
            <g id="logo" transform="translate(0, 51.7822)" fill-rule="nonzero">
                <path d="M34.6666838,37.5190728 C32.6157953,37.5190728 31.2580778,35.9683298 31.2580778,34.2008234 C31.2580778,32.4339719 32.6157953,30.8825741 34.6666838,30.8825741 C36.7178975,30.8825741 38.0752897,32.4339719 38.0752897,34.2008234 C38.0752897,35.9683298 36.7178975,37.5190728 34.6666838,37.5190728 M34.6666838,30.1844778 C32.3087312,30.1844778 30.5632804,31.8792931 30.5632804,34.2008234 C30.5632804,36.5223537 32.3087312,38.2178239 34.6666838,38.2178239 C37.0239857,38.2178239 38.7694366,36.5226811 38.7694366,34.2008234 C38.7694366,31.8792931 37.0340694,30.1844778 34.6666838,30.1844778 M47.6274533,34.42741 L50.6697943,34.42741 L50.6697943,33.728004 L47.6277786,33.728004 L47.6277786,31.047275 L53.2102287,31.047275 L53.2102287,30.3481964 L46.933957,30.3481964 L46.933957,38.0537778 L53.4558149,38.0537778 L53.4558149,37.3550267 L47.6274533,37.3550267 L47.6274533,34.42741 Z M39.1877463,31.0469476 L42.0859884,31.0469476 L42.0859884,38.0534504 L42.7801352,38.0534504 L42.7801352,31.0469476 L45.6790279,31.0469476 L45.6790279,30.347869 L39.1877463,30.347869 L39.1877463,31.0469476 Z M66.0698363,33.6972249 L64.2733165,33.6667732 C63.3856282,33.6562952 62.5275404,33.3999118 62.5275404,32.4650784 C62.5275404,31.8275581 63.2522636,30.8825741 65.1616554,30.8825741 C66.4471607,30.8825741 67.1406571,31.376022 67.8351292,31.8072569 L68.2638479,31.2836847 C67.8657055,31.0161685 66.9474409,30.1841504 65.1105865,30.1841504 C62.742225,30.1841504 61.8343694,31.4470759 61.8343694,32.4539456 C61.8343694,33.9647411 63.1709436,34.3550464 64.2733165,34.3648695 L66.0288511,34.395976 C67.3654253,34.4270826 68.0085033,35.1664359 68.0085033,35.8651871 C68.0085033,37.0053237 66.6514364,37.5190728 65.0692759,37.5190728 C62.9975696,37.5190728 62.2826048,36.5534602 61.7624825,36.1428539 L61.2830203,36.6457976 C61.8236351,37.1595466 62.7630429,38.2178239 65.0692759,38.2178239 C67.7843856,38.2178239 68.7029754,36.964394 68.7029754,35.8651871 C68.7029754,34.7250505 67.7635677,33.728004 66.0698363,33.6972249 M55.4247329,30.3481964 L54.7309113,30.3481964 L54.7309113,38.0537778 L60.395332,38.0537778 L60.395332,37.3550267 L55.4250582,37.3550267 L55.4247329,30.3481964 Z M28.5332098,33.7181809 L23.2262715,33.7181809 L23.2262715,30.3485239 L22.5321246,30.3485239 L22.5321246,38.0541053 L23.2259462,38.0541053 L23.2259462,34.4175869 L28.5328845,34.4175869 L28.5328845,38.0541053 L29.2263808,38.0541053 L29.2263808,30.3481964 L28.5328845,30.3481964 L28.5332098,33.7181809 Z M5.14072034,3.67908523 C6.14550932,2.91844844 7.25438781,2.36376969 8.43612895,2.03207573 C9.62925488,1.69907202 10.7791186,1.52978695 11.8548186,1.52978695 C12.7168098,1.52978695 13.5023602,1.60673471 14.1906521,1.75702842 C14.8717878,1.90633982 15.5054326,2.14078491 16.073371,2.45152288 C16.6530631,2.77212349 17.1911469,3.1636533 17.6753735,3.61719958 C18.1792317,4.09198363 18.674958,4.648627 19.1485652,5.27304988 L19.2965675,5.46722019 L20.665995,4.59132548 L20.4835131,4.36211938 C19.9739578,3.7209034 19.4243132,3.11303861 18.8379231,2.54222301 C18.2702409,2.00083685 17.6341555,1.53712243 16.9460964,1.1630572 C16.249022,0.78715921 15.4703024,0.497377221 14.6323819,0.301897168 C13.7817755,0.101505555 12.806587,0.000654874551 11.7334892,0.000654874551 C10.8975204,0.000654874551 10.0150366,0.0916824371 9.11010849,0.271118064 C8.21396292,0.447934193 7.32107015,0.730185124 6.45582615,1.11001236 C5.57843741,1.49901153 4.75108186,1.99355009 3.99183245,2.58282523 C3.2035848,3.19704689 2.50823716,3.92336832 1.92760749,4.73899969 C1.3329962,5.57560193 0.859063681,6.55431194 0.519796956,7.64893476 C0.175000477,8.74945144 0,9.99142102 0,11.3411175 C0,13.1321994 0.32235218,14.7510493 0.958273989,16.1534631 C1.59549692,17.5555495 2.46204203,18.751023 3.53351335,19.7094319 C4.60856275,20.6691506 5.87259966,21.4078491 7.28919274,21.9052263 C8.69830439,22.4042407 10.1932899,22.6566948 11.7334892,22.6566948 C13.2984099,22.6566948 14.7790831,22.4657989 16.1348488,22.0895735 C17.4915904,21.7087639 18.8850887,21.0434114 20.2776111,20.1121798 L20.3947117,20.0335948 L20.3947117,11.6351561 L18.7452184,11.6351561 L18.7452184,19.2474179 C17.7589704,19.8590708 16.6709098,20.3256689 15.5106371,20.6364069 C12.8986411,21.340397 10.2450093,21.2834229 7.93519822,20.479237 C6.70173761,20.0516039 5.60359335,19.4173579 4.67166701,18.5931983 C3.73713844,17.7713307 2.99354906,16.7444874 2.46204203,15.5414828 C1.92598109,14.3365137 1.65372198,12.9226395 1.65372198,11.34079 C1.65372198,9.50124742 1.98648311,7.93707956 2.6419217,6.69118072 C3.30484173,5.44495445 4.14536446,4.43186352 5.14072034,3.67908523 M78.3110871,20.6878145 L78.3110871,13.1937576 L88.9542388,13.1937576 L88.9542388,11.6351561 L78.3110871,11.6351561 L78.3110871,1.96822546 L91.4055466,1.96822546 L91.4055466,0.411916093 L76.6586663,0.411916093 L76.6586663,22.2441239 L91.819953,22.2441239 L91.819953,20.6878145 L78.3110871,20.6878145 Z M45.5599755,20.2277651 C43.5913828,18.7837667 41.7616845,17.5706116 39.9716703,16.5215026 L45.567457,3.78975903 L51.156738,16.5244495 C49.3787592,17.5650452 47.5461334,18.7775454 45.5599755,20.2277651 L45.5599755,20.2277651 Z M23.7789217,11.7841401 L23.7789217,1.96986265 L32.9342441,1.96986265 C35.7531179,1.96986265 38.0473156,4.17122345 38.0473156,6.87814741 C38.0473156,9.58310674 35.7531179,11.784795 32.9339188,11.784795 L23.779247,11.784795 L23.7789217,11.7841401 Z M73.7503405,16.2644643 L73.5987602,16.4772986 C73.2633968,16.9471711 72.8385815,17.4566635 72.3373255,17.991696 C71.8253353,18.536879 71.2216161,19.0496458 70.5447091,19.5152616 C69.8704043,19.9772756 69.0864802,20.3665985 68.2157065,20.672425 C67.3468844,20.9753044 66.3775509,21.1285451 65.3330778,21.1285451 C64.0254534,21.1285451 62.7405986,20.925534 61.5123425,20.523441 C60.2925436,20.1272419 59.1937488,19.5214829 58.246209,18.7218811 C57.3094035,17.9321024 56.5417434,16.9091883 55.9650225,15.6819534 C55.3935061,14.465524 55.1036819,13.0048263 55.1036819,11.3404626 C55.1036819,9.58736343 55.4126976,8.07591296 56.0199948,6.84605856 C56.6328217,5.61162003 57.4349614,4.58870598 58.4042949,3.80645833 C59.376556,3.01831681 60.4945423,2.43580589 61.7263765,2.07431514 C62.9458017,1.71522948 64.2095767,1.53168161 65.4801042,1.52913208 C66.4035733,1.52913208 67.2427949,1.63882356 67.9749995,1.85558704 C68.7143602,2.07169564 69.3941948,2.36835381 69.9949864,2.73966768 C70.5838015,3.09478747 71.1218715,3.52891379 71.5943867,4.03009799 C72.0631108,4.52442721 72.4841754,5.06241709 72.851918,5.6368327 L72.9885355,5.85326874 L74.3921174,5.02485243 L74.2431393,4.79400915 C73.8095528,4.12158204 73.3080116,3.49612081 72.7465274,2.92761668 C72.1592667,2.33817428 71.5000821,1.82612091 70.7847655,1.4037236 C70.0593918,0.97347102 69.2491201,0.628024694 68.374443,0.377207741 C67.5023681,0.127045663 66.5275048,0 65.4804295,0 C63.7245697,0 62.1020745,0.268498566 60.6588085,0.795672579 C59.2100128,1.32546609 57.9371933,2.090687 56.8758056,3.0674324 C55.78715,4.06698853 54.9237945,5.28966562 54.3438285,6.653198 C53.7505183,8.03596561 53.4502852,9.60373529 53.4502852,11.3129579 C53.4502852,12.6318752 53.6317912,13.8692607 53.9895989,14.9933528 C53.5025993,15.2343493 53.0196011,15.4834542 52.5408031,15.7405647 L45.805887,0.562209802 L45.7271693,0.411588655 L45.3879026,0.411588655 L38.5869547,15.7399098 C36.6570702,14.6927654 34.7941934,13.8581278 32.9378222,13.204563 C36.5380178,13.2025984 39.4661857,10.3643721 39.4661857,6.87749253 C39.4661857,3.38864836 36.5360662,0.550094623 32.9339188,0.550094623 L22.0793353,0.550094623 L22.0793353,11.969797 L22.0773836,11.969797 L22.0773836,22.2369203 L23.7307803,22.2437964 L23.7307803,13.204563 L25.2280428,13.204563 C29.3434815,13.5012212 33.4989296,14.820466 37.9214324,17.2372805 L35.6997721,22.2437964 L37.4595352,22.2437964 L39.3087503,18.0257495 C40.980688,19.01461 42.6727929,20.1383748 44.4797217,21.4595842 C44.7919902,21.6855159 45.1846028,21.9730058 45.4939438,22.2048314 L45.557048,22.2523098 L45.6208028,22.2058137 C45.6208028,22.2058137 46.5784263,21.5086998 46.6451086,21.4586018 C48.4624463,20.1328083 50.1555271,19.009371 51.8167305,18.0260769 L53.6662709,22.2437964 L55.4279857,22.2437964 L53.2037231,17.2356433 C53.6646219,16.984954 54.1301801,16.7430439 54.6001489,16.5100423 C55.2034777,17.7252685 56.0238355,18.8183425 57.0202298,19.7346446 C57.9082434,20.5565122 59.0750217,21.2555907 60.4886872,21.8132164 C61.9052803,22.3731342 63.5346063,22.6563674 65.3327525,22.6563674 C66.5548283,22.6563674 67.6754169,22.4929762 68.6623155,22.1717602 C69.6349018,21.8577479 70.5310473,21.4383007 71.3292837,20.9242242 C72.1001966,20.421608 72.7975963,19.8492476 73.4009901,19.2231876 C73.9894211,18.6056409 74.4994597,17.9920234 74.9177693,17.4009991 L75.0716266,17.1835808 L73.7500152,16.2647918 L73.7503405,16.2644643 Z" id="Shape"></path>
            </g>
            <g id="icon" transform="translate(22.3813, 0)">
                <path d="M23.1722751,43.1909413 C24.29449,43.1909413 24.8572239,43.7557706 24.8572239,44.883792 C24.8572239,46.0101762 24.29449,46.5766427 23.1722751,46.5766427 C22.0500601,46.5766427 21.490579,46.0101762 21.490579,44.883792 C21.490579,43.7554431 22.0500601,43.1909413 23.1722751,43.1909413 L23.1722751,43.1909413 Z M18.9751911,42.76691 C20.0974061,42.76691 20.6604653,43.3320667 20.6604653,44.4600881 C20.6604653,45.5871272 20.0977314,46.152284 18.9748659,46.152284 C17.8533015,46.152284 17.2941457,45.5871272 17.2941457,44.4600881 C17.2941457,43.3320667 17.8536268,42.7672374 18.9748659,42.7672374 L18.9751911,42.76691 Z M27.3387827,42.7567594 C28.4600218,42.7567594 29.0227557,43.3219162 29.0227557,44.4496101 C29.0227557,45.5759944 28.4600218,46.141806 27.3387827,46.141806 C26.2155919,46.141806 25.6564361,45.5759944 25.6564361,44.4492827 C25.6564361,43.3219162 26.2159172,42.756432 27.3387827,42.756432 L27.3387827,42.7567594 Z M14.9657936,41.5429495 C16.0880086,41.5429495 16.6507424,42.1058141 16.6507424,43.2331807 C16.6507424,44.3621844 16.0880086,44.9273411 14.9657936,44.9273411 C13.8448798,44.9273411 13.2818206,44.3621844 13.2818206,43.2331807 C13.2818206,42.1058141 13.8448798,41.5429495 14.9657936,41.5429495 L14.9657936,41.5429495 Z M31.4373069,41.5429495 C32.5572449,41.5429495 33.1196535,42.1058141 33.1196535,43.2331807 C33.1196535,44.3621844 32.5572449,44.9273411 31.4373069,44.9273411 C30.3141161,44.9273411 29.7507317,44.3621844 29.7507317,43.2331807 C29.7507317,42.1058141 30.3141161,41.5429495 31.4373069,41.5429495 L31.4373069,41.5429495 Z M11.2406905,39.5347766 C12.3629055,39.5347766 12.9249888,40.0979688 12.9249888,41.2253353 C12.9249888,42.3536841 12.3625802,42.9194958 11.2400399,42.9194958 C10.1194514,42.9194958 9.55704279,42.3536841 9.55704279,41.2253353 C9.55704279,40.0979688 10.1194514,39.5347766 11.2403652,39.5347766 L11.2406905,39.5347766 Z M35.16241,39.5347766 C36.2826733,39.5347766 36.8447566,40.0979688 36.8447566,41.2253353 C36.8447566,42.3536841 36.2826733,42.9194958 35.16241,42.9194958 C34.0392192,42.9194958 33.478437,42.3536841 33.478437,41.2253353 C33.478437,40.0979688 34.0392192,39.5347766 35.16241,39.5347766 L35.16241,39.5347766 Z M21.2824,38.9123184 C22.3141872,38.9123184 22.831382,39.4313065 22.831382,40.4643711 C22.831382,41.5026747 22.3141872,42.0196981 21.2824,42.0229725 C20.251914,42.0229725 19.7350445,41.5026747 19.7350445,40.4643711 C19.7350445,39.4313065 20.251914,38.9119909 21.2824,38.9119909 L21.2824,38.9123184 Z M25.0471873,38.9129733 C26.0779986,38.9129733 26.5968197,39.4306516 26.5968197,40.4666631 C26.5968197,41.5030021 26.0779986,42.0219902 25.0471873,42.0219902 C24.0167012,42.0219902 23.5030845,41.5030021 23.5030845,40.4666631 C23.5030845,39.4306516 24.0167012,38.9129733 25.0471873,38.9129733 L25.0471873,38.9129733 Z M28.7400877,38.0855393 C29.7686221,38.0855393 30.2874432,38.6048548 30.2874432,39.6385743 C30.2874432,40.6765504 29.7686221,41.1952111 28.7400877,41.1952111 C27.7050477,41.1952111 27.1930574,40.676223 27.1930574,39.6385743 C27.1930574,38.6048548 27.7050477,38.0855393 28.7400877,38.0855393 Z M17.5891744,38.0865202 C18.6212868,38.0855393 19.1362046,38.6038725 19.1362046,39.6389017 C19.1362046,40.6765504 18.6212868,41.1948836 17.5891744,41.1948836 C16.5590136,41.1948836 16.0457222,40.6765504 16.0457222,39.6389017 C16.0457222,38.6041999 16.5590136,38.0865202 17.5891744,38.0865202 Z M7.98301433,36.8389856 C9.10522929,36.8389856 9.66763789,37.4028325 9.66763789,38.5301991 C9.66763789,39.6585479 9.10555457,40.2243595 7.98301433,40.2243595 C6.86275106,40.2243595 6.2996919,39.6585479 6.2996919,38.5301991 C6.2996919,37.4028325 6.86242578,36.8389856 7.98301433,36.8389856 Z M38.4194356,36.8389856 C39.5403495,36.8389856 40.1034086,37.4028325 40.1034086,38.5301991 C40.1034086,39.6585479 39.5406747,40.2243595 38.4191103,40.2243595 C37.2975459,40.2243595 36.7344868,39.6585479 36.7344868,38.5301991 C36.7344868,37.4028325 37.2975459,36.8389856 38.4194356,36.8389856 L38.4194356,36.8389856 Z M32.213099,36.4332852 C33.2432598,36.4313261 33.7604545,36.951624 33.7604545,37.9863258 C33.7604545,39.0216824 33.2432598,39.5416528 32.213099,39.5439449 C31.1806612,39.5439449 30.6650929,39.0216824 30.6650929,37.9863258 C30.6650929,36.951624 31.1806612,36.4332852 32.213099,36.4332852 Z M14.1164883,36.4349204 C15.1472997,36.4326359 15.6664461,36.9532612 15.6664461,37.9873081 C15.6664461,39.0249568 15.1472997,39.54329 14.1164883,39.54329 C13.0863275,39.54329 12.5697833,39.0249568 12.5697833,37.9873081 C12.5697833,36.9532612 13.0866528,36.4352554 14.1164883,36.4352554 L14.1164883,36.4349204 Z M23.1677212,34.8059275 C24.1806421,34.8059275 24.6867774,35.3160748 24.6867774,36.3321127 C24.6867774,37.3543718 24.1806421,37.8645191 23.1677212,37.8645191 C22.1531738,37.8645191 21.6447616,37.3543718 21.6447616,36.3321127 C21.6447616,35.3160748 22.1531738,34.8062549 23.1677212,34.8062549 L23.1677212,34.8059275 Z M19.0649683,34.1412298 C20.079841,34.1412298 20.5856509,34.6500674 20.5856509,35.6690522 C20.5856509,36.6886918 20.079841,37.1998214 19.0649683,37.1998214 C18.0491198,37.1998214 17.5426594,36.6890193 17.5426594,35.6690522 C17.5426594,34.6500674 18.0491198,34.1412298 19.0649683,34.1412298 Z M27.268197,34.1402475 C28.2820938,34.1402475 28.790506,34.6490851 28.790506,35.6670875 C28.790506,36.6886918 28.2820938,37.1988391 27.268197,37.1988391 C26.2552761,37.1988391 25.7491408,36.6886918 25.7491408,35.6670875 C25.7491408,34.6487576 26.2552761,34.1402475 27.268197,34.1402475 Z M35.3237487,33.9542632 C36.2911306,33.9542632 36.8076747,34.4103833 36.8672009,35.3236058 C36.870779,35.385164 36.8727307,35.4467223 36.8727307,35.5102451 C36.8727307,36.4326359 36.4615771,36.9454027 35.6441492,37.0469082 C35.6376436,37.0472357 35.6314633,37.048218 35.6249577,37.0492003 C35.606002,37.0513461 35.5870265,37.0533108 35.5680338,37.0550942 L35.5582754,37.055749 C35.4834611,37.0622978 35.4053939,37.066227 35.324074,37.066227 C34.2903351,37.066227 33.773791,36.5449469 33.773791,35.5082805 C33.773791,34.4719415 34.2903351,33.9542632 35.3237487,33.9542632 Z M11.0084408,33.9555654 C12.0399027,33.9532808 12.5580733,34.4732512 12.5580733,35.5076256 C12.5580733,36.544292 12.0399027,37.060988 11.0084408,37.0642624 C9.97762944,37.0642624 9.46108528,36.544292 9.46108528,35.5072982 C9.46108528,34.4732512 9.97762944,33.9555654 11.0084408,33.9555654 Z M41.0828258,33.5655951 C42.2037396,33.5655951 42.7661482,34.1287872 42.7661482,35.2561538 C42.7661482,36.3841752 42.2034143,36.9493319 41.0828258,36.9493319 C39.9606108,36.9493319 39.3978769,36.3841752 39.3978769,35.2564812 C39.3978769,34.1287872 39.9606108,33.5655951 41.0828258,33.5655951 L41.0828258,33.5655951 Z M5.31994945,33.5655951 C6.44151385,33.5655951 7.00392244,34.1287872 7.00392244,35.2561538 C7.00392244,36.3841752 6.44118857,36.9493319 5.31962417,36.9493319 C4.19871033,36.9493319 3.63565118,36.3841752 3.63565118,35.2564812 C3.63565118,34.1287872 4.19871033,33.5655951 5.31994945,33.5655951 Z M30.832612,32.2898995 C31.8468341,32.2898995 32.3536198,32.7990644 32.3536198,33.8177218 C32.3536198,34.8373615 31.8468341,35.3468539 30.8322867,35.3468539 C29.8177393,35.3468539 29.3122547,34.8373615 29.3122547,33.8177218 C29.3122547,32.7993919 29.8177393,32.289572 30.8322867,32.289572 L30.832612,32.2898995 Z M15.5038062,32.2885897 C16.517703,32.2885897 17.0241635,32.798737 17.0241635,33.8154298 C17.0241635,34.8370341 16.517703,35.346199 15.5038062,35.346199 C14.4902347,35.346199 13.9814972,34.8367066 13.9814972,33.8154298 C13.9814972,32.798737 14.4902347,32.2885897 15.5038062,32.2885897 Z M37.7857908,30.8311664 C38.8198549,30.8311664 39.3354232,31.3485173 39.3354232,32.3848563 C39.3354232,33.4208678 38.8198549,33.9414931 37.7857908,33.9414931 C36.7543288,33.9414931 36.2407122,33.4208678 36.2407122,32.3848563 C36.2407122,31.3485173 36.7543288,30.8311664 37.7857908,30.8311664 Z M8.54119429,30.8311664 C9.57233094,30.8301841 10.0914773,31.3485173 10.0914773,32.3858386 C10.0914773,33.4205404 9.57233094,33.9408382 8.54151957,33.9408382 C7.51038293,33.9408382 6.99774213,33.4208678 6.99774213,32.3855112 C6.99774213,31.3485173 7.51070821,30.830839 8.54119429,30.830839 L8.54119429,30.8311664 Z M22.5103309,31.8400007 C23.1257601,31.8400007 23.4360769,32.1513935 23.4360769,32.7709048 C23.4360769,33.3930357 23.1257601,33.7083578 22.5106562,33.7054108 C21.889372,33.7021365 21.5816574,33.3930357 21.5816574,32.7709048 C21.5816574,32.1513935 21.8896972,31.8403281 22.5103309,31.8403281 L22.5103309,31.8400007 Z M25.1337117,31.6566358 C25.7517431,31.6566358 26.0653127,31.9663915 26.0653127,32.5878674 C26.0653127,33.2099982 25.7520684,33.5230283 25.1333864,33.5210728 C24.5150297,33.5187716 24.2069898,33.2103257 24.2069898,32.5878674 C24.2069898,31.9663915 24.5150297,31.6566358 25.1333864,31.6566358 L25.1337117,31.6566358 Z M3.33997193,29.8570405 C4.46218689,29.8570405 5.02394493,30.4195778 5.02394493,31.5475992 C5.02394493,32.675948 4.46218689,33.2417596 3.33964665,33.2417596 C2.21970866,33.2417596 1.65632422,32.675948 1.65632422,31.5475992 C1.65632422,30.4195778 2.21970866,29.8570405 3.33964665,29.8570405 L3.33997193,29.8570405 Z M43.0631286,29.8570405 C44.1833919,29.8570405 44.7454752,30.4195778 44.7454752,31.5475992 C44.7454752,32.675948 44.1833919,33.2417596 43.0631286,33.2417596 C41.9399378,33.2417596 41.3768786,32.675948 41.3768786,31.5475992 C41.3768786,30.4195778 41.9396125,29.8570405 43.0631286,29.8570405 Z M19.9211045,31.287614 C20.5397865,31.287614 20.8468505,31.5980245 20.8468505,32.2181907 C20.8468505,32.8396667 20.5397865,33.1533516 19.9211045,33.1533516 C19.3020972,33.1533516 18.9914551,32.8396667 18.9914551,32.2181907 C18.9914551,31.5980245 19.3020972,31.287614 19.9211045,31.287614 Z M27.6416181,30.736537 C28.2573726,30.736537 28.5667136,31.0476025 28.5667136,31.6664589 C28.5667136,32.2908818 28.2573726,32.6019472 27.6416181,32.6019472 C27.0180569,32.6019472 26.7106676,32.2908818 26.7106676,31.6664589 C26.7106676,31.0476025 27.0180569,30.736537 27.6416181,30.736537 Z M12.6943655,29.4644432 C13.7092381,29.4644432 14.2153733,29.9729533 14.2153733,30.9912832 C14.2153733,32.013215 13.7092381,32.5243446 12.6943655,32.5243446 C11.6807939,32.5243446 11.1740082,32.0135424 11.1740082,30.9912832 C11.1740082,29.9729533 11.6807939,29.4644432 12.6943655,29.4644432 Z M33.6414021,29.4670627 C34.6549737,29.4670627 35.1633858,29.97721 35.1633858,30.9929204 C35.1633858,32.0145247 34.6549737,32.5240171 33.6410769,32.5240171 C32.6275053,32.5240171 32.1210448,32.0145247 32.1210448,30.9932479 C32.1210448,29.97721 32.6275053,29.4670627 33.6414021,29.4670627 Z M17.5420088,29.9994757 C18.1603655,29.9994757 18.4684054,30.3105412 18.4684054,30.932672 C18.4684054,31.5538205 18.1603655,31.8652133 17.5420088,31.8652133 C16.9236521,31.8652133 16.61301,31.5538205 16.61301,30.932672 C16.61301,30.3105412 16.9236521,29.9994757 17.5420088,29.9994757 Z M23.1677212,29.1923429 C23.5391906,29.1923429 23.7990891,29.3053087 23.9474166,29.5305856 C24.0463016,29.6795695 24.0957441,29.8779965 24.0957441,30.1258665 L24.0957441,30.1068752 L24.0957441,30.1281586 C24.0957441,30.2394873 24.0859858,30.3409928 24.0654931,30.4326753 C23.997835,30.7424309 23.8156783,30.937911 23.5196738,31.0181331 L23.4741346,31.0289385 C23.3734436,31.0506161 23.2706845,31.061048 23.1677212,31.0600451 C23.0603789,31.0613548 22.9536871,31.050222 22.8492723,31.0266465 C22.7191605,30.9961948 22.6095412,30.9447872 22.5213904,30.8724235 C22.3314271,30.7178731 22.2357948,30.4693482 22.2357948,30.1281586 C22.2357948,29.5060278 22.5483886,29.1923429 23.1677212,29.1923429 L23.1677212,29.1923429 Z M29.8525442,29.0806867 C30.4331685,29.0806867 30.7425095,29.3527871 30.7776397,29.9025543 C30.7799166,29.938245 30.7808925,29.9745905 30.7808925,30.0125732 C30.7808925,30.6343766 30.4709009,30.945442 29.8525442,30.945442 C29.23126,30.945442 28.9254971,30.6343766 28.9254971,30.0125732 C28.9254971,29.9749179 28.9267982,29.938245 28.9287499,29.9028817 C28.9638801,29.3531146 29.2693177,29.0806867 29.8525442,29.0806867 L29.8525442,29.0806867 Z M20.5192939,28.6569829 C21.1356989,28.6569829 21.4505696,28.9687032 21.4505696,29.5895243 C21.4505696,30.2096905 21.1356989,30.5240303 20.5192939,30.5240303 C19.9002866,30.5240303 19.5899698,30.2096905 19.5899698,29.5895243 C19.5899698,28.9687032 19.9002866,28.6569829 20.5192939,28.6569829 Z M25.810944,28.6576378 C26.4309271,28.6576378 26.7418945,28.9683758 26.7418945,29.5891968 C26.7418945,30.2113277 26.4309271,30.5220656 25.810944,30.5220656 C25.194539,30.5220656 24.8838969,30.2116551 24.8838969,29.5891968 C24.8838969,28.9683758 25.194539,28.6576378 25.810944,28.6576378 Z M39.4310555,27.3400302 C40.463168,27.3400302 40.9803627,27.8557439 40.9803627,28.8930652 C40.9803627,29.9287493 40.463168,30.4500294 39.4310555,30.4500294 C38.3999188,30.4500294 37.8859769,29.9287493 37.8859769,28.8930652 C37.8859769,27.8557439 38.3999188,27.3403576 39.4310555,27.3403576 L39.4310555,27.3400302 Z M6.8988571,27.3400277 C7.92999374,27.3387204 8.44783902,27.858036 8.44783902,28.8930652 C8.44783902,29.9287493 7.92999374,30.4483922 6.8988571,30.4483922 C5.86804574,30.4483922 5.3544291,29.9287493 5.3544291,28.8930652 C5.3544291,27.858036 5.86837102,27.3403576 6.8988571,27.3403576 L6.8988571,27.3400277 Z M15.5672358,28.0132412 C16.1852672,28.0132412 16.4959093,28.3220146 16.4959093,28.9457826 C16.4959093,29.567586 16.1855925,29.8789788 15.5669105,29.8789788 C14.9508307,29.8789788 14.6398633,29.567586 14.6398633,28.9457826 C14.6398633,28.3220146 14.9508307,28.0132412 15.5669105,28.0132412 L15.5672358,28.0132412 Z M2.11692027,25.7869952 L2.18197621,25.7876501 C3.26027841,25.8095884 3.80056798,26.372453 3.80056798,27.4772264 C3.80056798,28.6059027 3.23848467,29.1717143 2.11659499,29.1717143 C0.995681154,29.1717143 0.432621998,28.6059027 0.432621998,27.4775538 C0.432621998,26.3501873 0.995355874,25.7869952 2.11659499,25.7869952 L2.11692027,25.7869952 Z M44.2861802,25.7869952 C45.4064435,25.7869952 45.969828,26.3501873 45.969828,27.4775538 C45.969828,28.6059027 45.4070941,29.1717143 44.2865055,29.1717143 C43.1642906,29.1717143 42.6015567,28.6059027 42.6015567,27.4775538 C42.6015567,26.3501873 43.1642906,25.7869952 44.2865055,25.7869952 L44.2861802,25.7869952 Z M27.9743793,27.1917011 C28.5924107,27.1917011 28.9053297,27.5034214 28.9053297,28.1242425 C28.9053297,28.7463733 28.5920854,29.0587485 27.9743793,29.0587485 C27.3556973,29.0587485 27.048308,28.7467007 27.048308,28.1242425 C27.048308,27.5034214 27.3556973,27.1917011 27.9743793,27.1917011 Z M18.359762,27.1917011 C18.976167,27.1917011 19.2887608,27.5040763 19.2887608,28.1265345 C19.2887608,28.7467007 18.9764923,29.0587485 18.359762,29.0587485 C17.7417305,29.0587485 17.4304379,28.7467007 17.4304379,28.1265345 C17.4304379,27.5044037 17.7414053,27.1917011 18.359762,27.1917011 Z M35.4841116,25.8848989 C36.4973579,25.8848989 37.0051195,26.3966834 37.0051195,27.411739 C37.0051195,28.434653 36.4970326,28.9434905 35.4841116,28.9434905 C34.4689137,28.9434905 33.9637543,28.434653 33.9637543,27.411739 C33.9637543,26.3966834 34.4689137,25.8848989 35.4841116,25.8848989 Z M10.8506801,25.8848989 C11.8662034,25.8848989 12.3729891,26.3930816 12.3729891,27.4120664 C12.3729891,28.4336707 11.8662034,28.9411985 10.8506801,28.9411985 C9.83613277,28.9411985 9.3309734,28.4336707 9.3309734,27.4120664 C9.3309734,26.3930816 9.83613277,25.8852264 10.8510054,25.8852264 L10.8506801,25.8848989 Z M31.5004112,26.8547681 C32.1181173,26.8547681 32.4274583,27.1635415 32.4274583,27.7866546 C32.4274583,28.4097678 32.1181173,28.7224704 31.5004112,28.7188686 C30.8788017,28.7172314 30.5727135,28.4097678 30.5727135,27.7866546 C30.5727135,27.1635415 30.8784764,26.8547681 31.5004112,26.8547681 Z M14.2836821,25.6226217 C14.9030146,25.6226217 15.2133314,25.9327048 15.2133314,26.5531984 C15.2133314,27.1763116 14.9030146,27.487377 14.2836821,27.487377 C13.6630484,27.487377 13.3579361,27.1763116 13.3579361,26.552871 C13.3579361,25.9327048 13.6630484,25.6226217 14.2836821,25.6226217 Z M16.9005572,25.0188273 C17.5195645,25.0188273 17.8292308,25.3315299 17.8292308,25.9533333 C17.8292308,26.5731721 17.5195645,26.8865296 16.9005572,26.8865296 C16.2818753,26.8865296 15.9715584,26.5731721 15.9715584,25.9533333 C15.9715584,25.3315299 16.2818753,25.0184999 16.9005572,25.0184999 L16.9005572,25.0188273 Z M29.4306565,25.0188273 C30.0493384,25.0188273 30.3596553,25.3292379 30.3596553,25.9510413 C30.3596553,26.5731721 30.0493384,26.8858747 29.4309817,26.8858747 C28.8122998,26.8858747 28.5019829,26.5731721 28.5019829,25.9510413 C28.5019829,25.3292379 28.8122998,25.0184999 29.4309817,25.0184999 L29.4309817,25.0188273 L29.4306565,25.0188273 Z M40.2553142,23.6288561 C41.287752,23.6288561 41.8042962,24.146207 41.8042962,25.182546 C41.8042962,26.2192124 41.287752,26.7398377 40.2553142,26.7398377 C39.2248281,26.7398377 38.7053565,26.2192124 38.7053565,25.182546 C38.7053565,24.146207 39.2248281,23.6288561 40.2553142,23.6288561 L40.2553142,23.6288561 Z M6.07687531,23.6288547 C7.10475915,23.6278738 7.62488139,24.1488265 7.62488139,25.1818911 C7.62488139,26.2179026 7.10443387,26.7372182 6.07720059,26.737873 C5.04541339,26.737873 4.52659227,26.2179026 4.52659227,25.1818911 C4.52659227,24.1488265 5.04541339,23.6288547 6.07687531,23.6288547 Z M32.4141218,24.3371029 C33.0311774,24.3371029 33.3427954,24.6491507 33.3427954,25.2706266 C33.3427954,25.8917751 33.0311774,26.2028405 32.4141218,26.2028405 C31.7954399,26.2028405 31.4874,25.8917751 31.4874,25.2706266 C31.4874,24.6491507 31.7954399,24.3371029 32.4141218,24.3371029 Z M1.68429827,21.6000548 C2.80586267,21.6000548 3.36827127,22.1622646 3.36827127,23.290286 C3.36827127,24.4192897 2.80586267,24.9844464 1.68429827,24.9844464 C0.563384436,24.9844464 0,24.4192897 0,23.290286 C0,22.1622646 0.563384436,21.6000548 1.68429827,21.6000548 Z M44.6550474,21.5925237 C45.7753107,21.5925237 46.3383699,22.1576804 46.3383699,23.2857018 C46.3383699,24.4130684 45.775636,24.9762605 44.6550474,24.9762605 C43.5328325,24.9762605 42.9700986,24.4130684 42.9700986,23.2857018 C42.9700986,22.1576804 43.5328325,21.5928511 44.6550474,21.5928511 L44.6550474,21.5925237 Z M13.7352605,23.0208051 C14.3565447,23.0208051 14.663934,23.3318705 14.663934,23.9513818 C14.663934,24.5774419 14.3565447,24.8881799 13.7352605,24.8881799 C13.1172291,24.8881799 12.8114662,24.5774419 12.8114662,23.9517093 C12.8114662,23.3321979 13.1172291,23.0208051 13.7352605,23.0208051 L13.7352605,23.0208051 Z M36.1444294,21.7641008 C37.1583262,21.7641008 37.6638109,22.2722835 37.6638109,23.2919232 C37.6638109,24.3125451 37.1583262,24.8210552 36.1447547,24.8210552 C35.1308579,24.8210552 34.6224457,24.3125451 34.6224457,23.2919232 C34.6224457,22.2722835 35.1308579,21.7641008 36.1447547,21.7641008 L36.1444294,21.7641008 Z M10.1916635,21.7631185 C11.205235,21.7631185 11.7110449,22.2716286 11.7110449,23.2915957 C11.7110449,24.3112354 11.205235,24.8200729 10.1919888,24.8200729 C9.17809194,24.8200729 8.66967977,24.3112354 8.66967977,23.2915957 C8.66967977,22.2716286 9.17809194,21.7631185 10.1919888,21.7631185 L10.1916635,21.7631185 Z M29.9647657,22.3587269 C30.583773,22.3587269 30.8957162,22.6730667 30.8957162,23.2919232 C30.8957162,23.9156912 30.583773,24.2261017 29.9647657,24.2261017 C29.3467343,24.2261017 29.0373933,23.9156912 29.0373933,23.2915957 C29.0373933,22.6727393 29.3470596,22.3587269 29.9644404,22.3587269 L29.9647657,22.3587269 Z M16.3661227,22.3587269 C16.9848047,22.3587269 17.2973985,22.6730667 17.2973985,23.2932329 C17.2973985,23.9133991 16.9848047,24.2261017 16.3661227,24.2261017 C15.747766,24.2261017 15.4397261,23.9133991 15.4397261,23.2929055 C15.4397261,22.6730667 15.747766,22.3587269 16.3661227,22.3587269 L16.3661227,22.3587269 Z M32.5998566,21.6976311 C33.2162616,21.6976311 33.5259279,22.0070593 33.5259279,22.6301724 C33.5259279,23.2519758 33.2162616,23.5623863 32.6001818,23.5623863 C31.9801987,23.5623863 31.6682555,23.2519758 31.6682555,22.6301724 C31.6682555,22.0070593 31.9798734,21.6976311 32.5998566,21.6976311 Z M40.252712,19.8453109 C41.2841739,19.8430263 41.8026698,20.3636516 41.8026698,21.3999906 C41.8026698,22.4337101 41.2841739,22.9553176 40.252712,22.9553176 C39.2215754,22.9553176 38.7076334,22.4337101 38.7076334,21.3999906 C38.7076334,20.3636516 39.2222259,19.8453109 40.252712,19.8453109 Z M6.07655003,19.8453178 C7.10671083,19.8446635 7.62488139,20.3620144 7.62488139,21.3973711 C7.62488139,22.4343649 7.10671083,22.9513884 6.07655003,22.9536804 C5.04541339,22.9536804 4.53082091,22.4343649 4.53082091,21.3976985 C4.53082091,20.3620144 5.04508811,19.8453178 6.07655003,19.8453178 L6.07655003,19.8453178 Z M13.9167666,20.3816606 C14.5354486,20.3816606 14.8480423,20.6910889 14.8480423,21.3122374 C14.8480423,21.9353505 14.5354486,22.2457611 13.9167666,22.2457611 C13.2990604,22.2457611 12.9900447,21.9353505 12.9900447,21.3122374 C12.9900447,20.6910889 13.2990604,20.3816606 13.9170919,20.3816606 L13.9167666,20.3816606 Z M16.900232,19.6986265 C17.5192392,19.6986265 17.8289055,20.0106742 17.8289055,20.6331325 C17.8289055,21.2526438 17.5192392,21.5653464 16.900232,21.5653464 C16.2818753,21.5653464 15.9712331,21.2526438 15.9712331,20.6331325 C15.9712331,20.0110017 16.2818753,19.6989539 16.900232,19.6989539 L16.900232,19.6986265 Z M29.4306565,19.7002637 C30.0490132,19.7002637 30.35933,20.0106742 30.35933,20.6314953 C30.35933,21.2523164 30.0490132,21.5646915 29.4306565,21.5646915 C28.8122998,21.5646915 28.5016576,21.2523164 28.5016576,20.6314953 C28.5016576,20.0106742 28.8122998,19.7002637 29.4306565,19.7002637 L29.4306565,19.7002637 Z M32.049158,19.0971242 C32.6684906,19.0971242 32.9778316,19.4068799 32.9778316,20.0309753 C32.9778316,20.6508141 32.6684906,20.9615521 32.049158,20.9615521 C31.4291749,20.9615521 31.123412,20.6508141 31.123412,20.0309753 C31.123412,19.4068799 31.4291749,19.0971242 32.049158,19.0971242 Z M2.11041468,17.4049284 C3.23262963,17.4049284 3.79536351,17.97074 3.79536351,19.0981065 C3.79536351,20.2264554 3.23262963,20.7893201 2.11041468,20.7893201 C0.990151399,20.7893201 0.427092243,20.2261279 0.427092243,19.0981065 C0.427092243,17.9710674 0.989826119,17.4049284 2.11041468,17.4049284 Z M44.223076,17.4049284 C45.3443151,17.4049284 45.9073743,17.97074 45.9073743,19.0981065 C45.9073743,20.2264554 45.3443151,20.7893201 44.223076,20.7893201 C43.100861,20.7893201 42.539103,20.2261279 42.539103,19.0981065 C42.539103,17.9710674 43.1005357,17.4049284 44.2234013,17.4049284 L44.223076,17.4049284 Z M35.4811841,17.6403558 C36.4950809,17.6403558 37.0051195,18.1508305 37.0051195,19.168833 C37.0051195,20.1881452 36.4950809,20.6996022 35.4811841,20.6996022 C34.466962,20.6996022 33.9637543,20.1881452 33.9637543,19.168833 C33.9637543,18.1505031 34.466962,17.6403558 35.4811841,17.6403558 Z M10.8506801,17.6416655 C11.8662034,17.6416655 12.3759166,18.1511579 12.3759166,19.168833 C12.3759166,20.1878178 11.8658781,20.6986199 10.8506801,20.6986199 C9.83678333,20.6986199 9.3342262,20.1878178 9.3342262,19.168833 C9.3342262,18.1511579 9.83678333,17.6416655 10.8506801,17.6416655 Z M14.8347059,17.8643229 C15.4530626,17.8643229 15.7637047,18.1776803 15.7637047,18.7968642 C15.7637047,19.4186676 15.4530626,19.7294056 14.8347059,19.7294056 C14.2153733,19.7294056 13.907984,19.4183402 13.907984,18.7968642 C13.907984,18.1776803 14.2153733,17.8643229 14.8347059,17.8643229 Z M27.974054,17.5260802 C28.5920854,17.5260802 28.9053297,17.8381279 28.9053297,18.4592764 C28.9053297,19.0807524 28.5917601,19.393455 27.974054,19.393455 C27.3556973,19.393455 27.048308,19.0807524 27.048308,18.458949 C27.048308,17.8381279 27.3556973,17.5260802 27.974054,17.5260802 L27.974054,17.5260802 Z M18.3594367,17.5277174 C18.9758417,17.5277174 19.2884355,17.8387828 19.2884355,18.4609136 C19.2884355,19.0814072 18.976167,19.3928001 18.359762,19.3928001 C17.74108,19.3928001 17.4301126,19.0817347 17.4301126,18.4605862 C17.4301126,17.8387828 17.74108,17.5277174 18.359762,17.5277174 L18.3594367,17.5277174 Z M39.4307302,16.1328346 C40.4628427,16.1328346 40.9823144,16.6508403 40.9823144,17.6875067 C40.9823144,18.7245006 40.4628427,19.2451259 39.4307302,19.2451259 C38.3995936,19.2451259 37.8856516,18.7245006 37.8856516,17.6875067 C37.8856516,16.6508403 38.3999188,16.133162 39.4307302,16.133162 L39.4307302,16.1328346 Z M6.89853182,16.1328344 C7.92966846,16.1325071 8.44751374,16.6534598 8.44751374,17.686197 C8.44751374,18.7245006 7.92966846,19.2415241 6.89853182,19.2434887 C5.86804574,19.2434887 5.3544291,18.7245006 5.3544291,17.686197 C5.3544291,16.6537873 5.86804574,16.133162 6.89853182,16.133162 L6.89853182,16.1328344 Z M30.7682066,16.7061772 C31.3852622,16.7061772 31.6968801,17.0136408 31.6968801,17.6383912 C31.6968801,18.2598671 31.3852622,18.5719148 30.7682066,18.5696353 C30.1469224,18.5676581 29.8414847,18.2598671 29.8414847,17.6383912 C29.8414847,17.0136408 30.1469224,16.7058498 30.7682066,16.7058498 L30.7682066,16.7061772 Z M20.5196192,16.0614532 C21.1360242,16.0614532 21.4508949,16.3738284 21.4508949,16.9953043 C21.4508949,17.6148157 21.1360242,17.928828 20.5196192,17.928828 C19.9006119,17.928828 19.5899698,17.6148157 19.5899698,16.9953043 C19.5899698,16.373501 19.9006119,16.0617807 20.5196192,16.0617807 L20.5196192,16.0614532 Z M25.810944,16.062763 C26.4312524,16.062763 26.7418945,16.3748107 26.7418945,16.9956318 C26.7418945,17.6171077 26.4312524,17.928828 25.810944,17.928828 C25.1948642,17.928828 24.8842221,17.6171077 24.8842221,16.9956318 C24.8842221,16.3748107 25.1948642,16.062763 25.8112693,16.062763 L25.810944,16.062763 Z M16.4841992,15.6377494 C17.0381505,15.6377494 17.344564,15.8895487 17.4008374,16.3918374 C17.407343,16.4484841 17.4105958,16.5080777 17.4105958,16.5712731 C17.4105958,17.1934039 17.100279,17.5044693 16.4841992,17.5044693 C15.8661678,17.5044693 15.5552004,17.1934039 15.5552004,16.5712731 C15.5552004,16.5080777 15.5584532,16.4484841 15.5649588,16.3918374 C15.6212322,15.8895487 15.9286215,15.637422 16.4838739,15.637422 L16.4841992,15.6377494 Z M23.1680464,15.5247835 C23.7633083,15.5247835 24.072324,15.8145655 24.0950936,16.3902003 C24.0954189,16.412466 24.0960694,16.4353866 24.0960694,16.4583072 C24.0960694,16.749399 24.028086,16.9723837 23.8924443,17.1269341 C23.738587,17.3030954 23.4969042,17.3918309 23.1680464,17.3918309 C22.9370979,17.3918309 22.7494115,17.3482817 22.6040115,17.2615109 C22.3594011,17.1164561 22.2361201,16.8489399 22.2361201,16.4583072 C22.2361201,16.0951793 22.3428119,15.8378136 22.5552195,15.6865376 C22.7061493,15.5784833 22.9100996,15.5247835 23.1680464,15.5247835 L23.1680464,15.5247835 Z M12.6946908,14.0601566 C13.7095634,14.0601566 14.2153733,14.5709588 14.2153733,15.5886338 C14.2153733,16.6082735 13.7092381,17.1194031 12.6946908,17.1194031 C11.6811192,17.1194031 11.1740082,16.6086009 11.1740082,15.5886338 C11.1740082,14.5712862 11.6807939,14.0601566 12.6946908,14.0601566 Z M33.6387999,14.060484 C34.6523714,14.060484 35.1611089,14.5693216 35.1611089,15.5866692 C35.1611089,16.6082735 34.6526967,17.1184208 33.6387999,17.1184208 C32.6258789,17.1184208 32.1197437,16.607946 32.1197437,15.5866692 C32.1197437,14.5693216 32.6258789,14.060484 33.6387999,14.060484 L33.6387999,14.060484 Z M43.0006749,13.334883 C44.1206129,13.334883 44.683672,13.9000398 44.683672,15.0283886 C44.683672,16.1557552 44.1209382,16.7186198 43.0003496,16.7186198 C41.8787852,16.7186198 41.3154008,16.1554277 41.3154008,15.0283886 C41.3154008,13.9000398 41.8787852,13.334883 43.0003496,13.334883 L43.0006749,13.334883 Z M3.3341169,13.334883 C4.45665713,13.334883 5.01906573,13.9000398 5.01906573,15.0283886 C5.01906573,16.1557552 4.45665713,16.7186198 3.3341169,16.7186198 C2.21385362,16.7186198 1.65079446,16.1554277 1.65079446,15.0283886 C1.65079446,13.9000398 2.21352834,13.334883 3.3341169,13.334883 Z M28.7921324,14.7183055 C29.4108144,14.7183055 29.7217818,15.0293709 29.7217818,15.6515018 C29.7217818,16.271668 29.4108144,16.5830608 28.7921324,16.5830608 C28.1721493,16.5830608 27.8634589,16.2719954 27.8634589,15.6515018 C27.8634589,15.0293709 28.1724746,14.7183055 28.7921324,14.7183055 Z M18.6954506,13.9828814 C19.3138073,13.9828814 19.6244494,14.2919822 19.6244494,14.9144405 C19.6244494,15.5365713 19.3138073,15.8479641 18.6954506,15.8479641 C18.0764433,15.8479641 17.769054,15.5368987 17.769054,14.9144405 C17.769054,14.2923096 18.0764433,13.9828814 18.6954506,13.9828814 Z M37.786116,12.6433355 C38.8198549,12.6433355 39.3354232,13.1606864 39.3354232,14.1960431 C39.3354232,15.2343467 38.8198549,15.752025 37.786116,15.752025 C36.7546541,15.752025 36.2410375,15.2346741 36.2410375,14.1960431 C36.2410375,13.1606864 36.7546541,12.6430081 37.786116,12.6430081 L37.786116,12.6433355 Z M8.54119429,12.6433355 C9.57233094,12.6416983 10.0927785,13.1590492 10.0927785,14.1960431 C10.0927785,15.2320546 9.57233094,15.7513701 8.54119429,15.752025 C7.51070821,15.752025 6.99806741,15.2320546 6.99806741,14.1960431 C6.99806741,13.1590492 7.51070821,12.6430081 8.54151957,12.6430081 L8.54119429,12.6433355 Z M26.4146631,13.4301673 C27.0326945,13.4301673 27.3410597,13.7412327 27.3410597,14.3627087 C27.3410597,14.9838572 27.032044,15.2959049 26.4146631,15.2959049 C25.7930536,15.2959049 25.4850137,14.9838572 25.4850137,14.3627087 C25.4850137,13.7412327 25.7930536,13.4301673 26.4146631,13.4301673 Z M21.1991284,13.0624552 C21.8171599,13.0624552 22.127802,13.3718835 22.127802,13.9936868 C22.127802,14.6171274 21.8168346,14.9268831 21.1991284,14.9268831 C20.5797959,14.9268831 20.2704549,14.6171274 20.2704549,13.9936868 C20.2704549,13.3718835 20.5797959,13.0624552 21.1991284,13.0624552 Z M23.8293401,12.8794178 C24.4454198,12.8794178 24.7547608,13.1904832 24.7547608,13.8109768 C24.7547608,14.4331077 24.4457451,14.7451554 23.8293401,14.7435246 C23.2048031,14.7415536 22.8974137,14.4331077 22.8974137,13.8109768 C22.8974137,13.1908106 23.2048031,12.8794178 23.8293401,12.8794178 Z M15.5041315,11.2363375 C16.5180283,11.2363375 17.0241635,11.7448476 17.0241635,12.7631776 C17.0241635,13.7857642 16.5180283,14.295584 15.5041315,14.295584 C14.49056,14.295584 13.9818225,13.7857642 13.9818225,12.7631776 C13.9818225,11.7448476 14.4902347,11.2360101 15.5041315,11.2360101 L15.5041315,11.2363375 Z M30.8296844,11.2363375 C31.8435813,11.2363375 32.3497165,11.7471397 32.3497165,12.7651422 C32.3497165,13.7867465 31.8435813,14.2942743 30.8296844,14.2942743 C29.8167635,14.2942743 29.3083513,13.7867465 29.3083513,12.7651422 C29.3083513,11.7474671 29.8167635,11.236665 30.8296844,11.236665 L30.8296844,11.2363375 L30.8296844,11.2363375 Z M5.3144197,9.6266559 C6.43598409,9.6266559 6.99839269,10.1918126 6.99839269,11.3201615 C6.99839269,12.447528 6.43598409,13.0107201 5.3144197,13.0107201 C4.19350586,13.0107201 3.6304467,12.447528 3.6304467,11.3201615 C3.6304467,10.1918126 4.19318058,9.6266559 5.3144197,9.6266559 L5.3144197,9.6266559 Z M41.0203721,9.6266559 C42.1403101,9.6266559 42.7033692,10.1918126 42.7033692,11.3201615 C42.7033692,12.447528 42.1406354,13.0107201 41.0200468,13.0107201 C39.8978318,13.0107201 39.3354232,12.447528 39.3354232,11.3201615 C39.3354232,10.1918126 39.8978318,9.6266559 41.0203721,9.6266559 L41.0203721,9.6266559 Z M11.0107178,9.51761929 C11.999568,9.51761929 12.5164375,9.99404052 12.5567722,10.9472104 C12.5587238,10.988795 12.5593744,11.0300521 12.5593744,11.0722915 C12.5593744,12.1089579 12.0415291,12.6282734 11.0107178,12.6289283 C10.8887379,12.6289283 10.7674085,12.6210698 10.6464045,12.6043705 C10.5519581,12.5906974 10.4586656,12.5699012 10.3673145,12.5421574 C10.3229751,12.528514 10.2793342,12.5126685 10.2365521,12.494679 C9.72130904,12.2792253 9.46336224,11.8041138 9.46336224,11.0716366 C9.46336224,10.0352976 9.9799064,9.51761929 11.0107178,9.51761929 L11.0107178,9.51761929 Z M35.324074,9.51761929 C36.3542348,9.51761929 36.8727307,10.0352976 36.8727307,11.0716366 C36.8727307,12.108303 36.3539095,12.6289283 35.3243993,12.6289283 C34.2903351,12.6289283 33.7760679,12.108303 33.7760679,11.0716366 C33.7760679,10.0352976 34.2903351,9.51761929 35.3237487,9.51761929 L35.324074,9.51761929 L35.324074,9.51761929 Z M27.268197,9.38566206 C28.2817686,9.38566206 28.790506,9.89711909 28.790506,10.9141393 C28.790506,11.9344338 28.2820938,12.4442537 27.268197,12.4442537 C26.2552761,12.4442537 25.7491408,11.9347613 25.7491408,10.9141393 C25.7491408,9.89744653 26.2552761,9.38566206 27.268197,9.38566206 Z M19.0652936,9.38631694 C20.079841,9.38631694 20.5856509,9.89777396 20.5856509,10.9147941 C20.5856509,11.9350887 20.079841,12.4439262 19.0649683,12.4439262 C18.0491198,12.4439262 17.5426594,11.9350887 17.5426594,10.9147941 C17.5426594,9.8981014 18.0491198,9.38631694 19.0649683,9.38631694 L19.0652936,9.38631694 Z M23.1680464,8.72030952 C24.1806421,8.72030952 24.6871026,9.2304568 24.6871026,10.2481318 C24.6871026,11.2687538 24.1806421,11.779556 23.1677212,11.779556 C22.1531738,11.779556 21.6447616,11.2687538 21.6447616,10.2481318 C21.6447616,9.2304568 22.1531738,8.72030952 23.1677212,8.72030952 L23.1680464,8.72030952 Z M32.2150507,7.04088126 C33.2471632,7.03957399 33.7627315,7.55856207 33.7627315,8.59490104 C33.7627315,9.63091258 33.2471632,10.1502281 32.2147254,10.1502281 C31.1848899,10.1502281 30.6650929,9.63091258 30.6650929,8.59490104 C30.6650929,7.55856207 31.1848899,7.04088126 32.2147254,7.04088126 L32.2150507,7.04088126 Z M14.11844,7.04088126 C15.1499019,7.03957399 15.668723,7.55856207 15.668723,8.59326386 C15.668723,9.63025771 15.1495766,10.1502281 14.11844,10.1502281 C13.0882792,10.1502281 12.574012,9.63025771 12.574012,8.59326386 C12.574012,7.55856207 13.0886045,7.04088126 14.11844,7.04088126 Z M38.3563314,6.35162827 C39.4772452,6.35162827 40.0403044,6.91776732 40.0403044,8.04578873 C40.0403044,9.17413758 39.4772452,9.73634739 38.3563314,9.73634739 C37.2344417,9.73634739 36.6720331,9.17413758 36.6720331,8.04611617 C36.6720331,6.91776732 37.234767,6.35195571 38.3563314,6.35195571 L38.3563314,6.35162827 Z M7.97683402,6.35162827 C9.10002481,6.35162827 9.66243341,6.91776732 9.66243341,8.04578873 C9.66243341,9.17413758 9.09969953,9.73634739 7.97683402,9.73634739 C6.85657074,9.73634739 6.29351159,9.17413758 6.29351159,8.04611617 C6.29351159,6.91776732 6.85624546,6.35195571 7.97683402,6.35195571 L7.97683402,6.35162827 Z M28.7423646,5.38798037 C29.7738265,5.38798037 30.2897201,5.9056587 30.2897201,6.94167024 C30.2897201,7.97866409 29.7738265,8.49568755 28.7423646,8.4969973 C27.7125291,8.4969973 27.1930574,7.97866409 27.1930574,6.94167024 C27.1930574,5.9056587 27.7125291,5.38798037 28.7423646,5.38798037 Z M17.591126,5.38863385 C18.6222627,5.38765293 19.1414091,5.90598614 19.1414091,6.94232511 C19.1414091,7.97768178 18.6222627,8.4969973 17.5914513,8.4969973 C16.5612905,8.4969973 16.0470233,7.97768178 16.0470233,6.94232511 C16.0470233,5.90631358 16.5612905,5.38863385 17.591126,5.38863385 Z M25.0471873,4.56087381 C26.0779986,4.56087381 26.5968197,5.07855214 26.5968197,6.11554599 C26.5968197,7.1512301 26.0779986,7.66989074 25.0471873,7.66989074 C24.0167012,7.66989074 23.5030845,7.1512301 23.5030845,6.11554599 C23.5030845,5.07855214 24.0167012,4.56087381 25.0471873,4.56087381 L25.0471873,4.56087381 Z M21.2824,4.56087381 C22.3141872,4.56087381 22.831382,5.07855214 22.831382,6.1129265 C22.831382,7.14926547 22.3141872,7.66989074 21.2824,7.66989074 C20.251914,7.66989074 19.7369962,7.14926547 19.7369962,6.11325393 C19.7369962,5.07855214 20.251914,4.56087381 21.2824,4.56087381 Z M35.1002816,3.65649206 C36.2192437,3.65649206 36.7832787,4.22164879 36.7832787,5.35065252 C36.7832787,6.47801906 36.2192437,7.04121117 35.0999563,7.04121117 C33.9767655,7.04121117 33.4143569,6.47801906 33.4143569,5.35065252 C33.4143569,4.22164879 33.9770908,3.65649206 35.0999563,3.65649206 L35.1002816,3.65649206 Z M11.2345102,3.65649206 C12.3573757,3.65649206 12.9188085,4.22164879 12.9188085,5.35065252 C12.9188085,6.47801906 12.3573757,7.04121117 11.2348355,7.04121117 C10.1139216,7.04121117 9.55086248,6.47801906 9.55086248,5.35065252 C9.55086248,4.22164879 10.1139216,3.65649206 11.2351607,3.65649206 L11.2348355,3.65649206 L11.2345102,3.65649206 Z M31.3742027,1.64864668 C32.4947912,1.64864668 33.0568745,2.21478573 33.0568745,3.34280715 C33.0568745,4.471156 32.4947912,5.03238349 31.3745279,5.03238349 C30.2513371,5.03238349 29.6889285,4.471156 29.6889285,3.34280715 C29.6889285,2.21478573 30.2513371,1.64864668 31.3745279,1.64864668 L31.3742027,1.64864668 Z M14.9602638,1.64864668 C16.0824788,1.64864668 16.6442368,2.21478573 16.6442368,3.34280715 C16.6442368,4.471156 16.0824788,5.03238349 14.9602638,5.03238349 C13.8400006,5.03238349 13.2759656,4.471156 13.2759656,3.34280715 C13.2759656,2.21478573 13.8400006,1.64864668 14.9602638,1.64864668 Z M19.0012135,0.43385439 C20.1227779,0.43385439 20.6829096,0.999993439 20.6829096,2.1267051 C20.6829096,3.25374421 20.1227779,3.81922838 19.0012135,3.81922838 C17.8786733,3.81922838 17.3162647,3.25407164 17.3162647,2.12637767 C17.3162647,0.999993439 17.8786733,0.433526953 19.0012135,0.433526953 L19.0012135,0.43385439 Z M27.3651304,0.423703834 C28.4857189,0.423703834 29.0458506,0.989515447 29.0458506,2.11622711 C29.0458506,3.24359365 28.4857189,3.8097327 27.3644798,3.8097327 C26.2416143,3.8097327 25.6792057,3.24359365 25.6792057,2.11622711 C25.6792057,0.989515447 26.2416143,0.423376397 27.3644798,0.423376397 L27.3648051,0.423376397 L27.3651304,0.423703834 Z M23.1673959,0 C24.2892856,0 24.8490919,0.565811612 24.8490919,1.6918684 C24.8490919,2.81988982 24.2892856,3.38537399 23.1673959,3.38537399 C22.0451809,3.38537399 21.4821218,2.81988982 21.4821218,1.6918684 C21.4821218,0.565811612 22.0448557,0 23.1673959,0 L23.1673959,0 Z" id="Shape"></path>
            </g>
        </g>
    </g>
</svg>